<svg width="173" height="164" viewBox="0 0 173 164" fill="none" xmlns="http://www.w3.org/2000/svg">
<path d="M158.61 28.89L165.45 35.72L167.46 33.71L158.61 24.86L149.77 33.71L151.78 35.72L158.61 28.89Z" fill="#C08D16"/>
<path d="M158.61 40.82L165.45 47.65L167.46 45.64L158.61 36.79L149.77 45.64L151.78 47.65L158.61 40.82Z" fill="#C08D16"/>
<path d="M158.61 52.89L165.45 59.73L167.46 57.71L158.61 48.87L149.77 57.71L151.78 59.73L158.61 52.89Z" fill="#C08D16"/>
<path d="M158.61 4.89001L165.45 11.72L167.46 9.70999L158.61 0.859985L149.77 9.70999L151.78 11.72L158.61 4.89001Z" fill="#C08D16"/>
<path d="M158.61 16.82L165.45 23.65L167.46 21.64L158.61 12.79L149.77 21.64L151.78 23.65L158.61 16.82Z" fill="#C08D16"/>
<path d="M83.0601 143.42L66.6201 159.78L50.17 143.42L33.73 159.78L17.29 143.42L0.830078 159.81L2.72003 161.55L17.29 147.04L33.73 163.4L50.17 147.04L66.6201 163.4L83.0601 147.04L97.5701 161.47L99.3801 159.65L83.0601 143.42Z" fill="#C08D16"/>
<path d="M130.28 86.79C129.09 86.79 128.13 85.82 128.13 84.64C128.13 83.45 129.1 82.49 130.28 82.49C131.46 82.49 132.43 83.46 132.43 84.64C132.43 85.83 131.47 86.79 130.28 86.79Z" fill="white"/>
<path d="M130.28 105.26C129.09 105.26 128.13 104.29 128.13 103.11C128.13 101.92 129.1 100.96 130.28 100.96C131.46 100.96 132.43 101.93 132.43 103.11C132.43 104.29 131.47 105.26 130.28 105.26Z" fill="white"/>
<path d="M150.53 105.26C149.34 105.26 148.38 104.29 148.38 103.11C148.38 101.92 149.35 100.96 150.53 100.96C151.72 100.96 152.68 101.93 152.68 103.11C152.69 104.29 151.72 105.26 150.53 105.26Z" fill="white"/>
<path d="M130.28 123.73C129.09 123.73 128.13 122.76 128.13 121.58C128.13 120.39 129.1 119.43 130.28 119.43C131.46 119.43 132.43 120.4 132.43 121.58C132.43 122.76 131.47 123.73 130.28 123.73Z" fill="white"/>
<path d="M150.53 123.73C149.34 123.73 148.38 122.76 148.38 121.58C148.38 120.39 149.35 119.43 150.53 119.43C151.72 119.43 152.68 120.4 152.68 121.58C152.69 122.76 151.72 123.73 150.53 123.73Z" fill="white"/>
<path d="M170.78 123.73C169.59 123.73 168.63 122.76 168.63 121.58C168.63 120.39 169.6 119.43 170.78 119.43C171.97 119.43 172.93 120.4 172.93 121.58C172.94 122.76 171.97 123.73 170.78 123.73Z" fill="white"/>
<path d="M130.28 142.19C129.09 142.19 128.13 141.22 128.13 140.04C128.13 138.85 129.1 137.89 130.28 137.89C131.46 137.89 132.43 138.86 132.43 140.04C132.43 141.23 131.47 142.19 130.28 142.19Z" fill="white"/>
<path d="M150.53 142.19C149.34 142.19 148.38 141.22 148.38 140.04C148.38 138.85 149.35 137.89 150.53 137.89C151.72 137.89 152.68 138.86 152.68 140.04C152.69 141.23 151.72 142.19 150.53 142.19Z" fill="white"/>
<path d="M130.28 160.66C131.467 160.66 132.43 159.697 132.43 158.51C132.43 157.323 131.467 156.36 130.28 156.36C129.092 156.36 128.13 157.323 128.13 158.51C128.13 159.697 129.092 160.66 130.28 160.66Z" fill="white"/>
</svg>
