<svg width="272" height="285" viewBox="0 0 272 285" fill="none" xmlns="http://www.w3.org/2000/svg">
<path fill-rule="evenodd" clip-rule="evenodd" d="M298.559 32.289C301.762 36.0778 304.26 40.3491 305.27 45.125L305.273 45.1239C307.244 54.4249 299.277 63.6088 291.533 68.2014C283.591 72.9088 274.884 76.6801 266.237 80.426C261.704 82.3897 257.187 84.3464 252.804 86.4273C234.1 95.3076 215.182 104.435 198.135 116.029C196.725 116.987 194.657 116.353 194.677 114.51C194.966 89.5269 200.402 65.0868 209.529 41.7105C214.987 27.7251 221.435 14.8096 237.889 10.7682C240.675 10.0844 243.518 9.65567 246.385 9.43765C250.601 8.80645 254.897 8.74032 259.121 9.3704C263.004 9.94809 266.836 11.0812 270.55 12.5823C273.386 13.5303 276.147 14.652 278.784 15.953C284.888 18.9654 290.773 22.837 295.279 27.8396C296.548 29.2482 297.602 30.7474 298.559 32.289ZM133.236 39.3154C132.994 39.8131 132.749 40.318 132.46 40.8165C132.42 40.8819 132.325 40.8338 132.337 40.7666C133.892 31.9789 143.731 32.8812 150.767 34.7302C150.895 34.7629 150.877 34.9703 150.736 34.9564C149.823 34.8743 148.904 34.7615 147.981 34.6483C145.718 34.3706 143.436 34.0906 141.181 34.2572C139.359 34.3912 137.339 34.6955 135.832 35.7739C134.487 36.7374 133.873 38.0013 133.236 39.3154ZM159.489 63.4469C159.285 63.3801 159.138 63.6575 159.317 63.764C168.817 69.3538 186.271 70.6315 188.208 70.6708C186.517 75.3372 184.597 79.9306 182.677 84.5243L182.672 84.5363C182.23 85.5931 181.788 86.65 181.349 87.7078C179.389 87.3674 177.415 87.0648 175.437 86.7616L175.437 86.7615L175.435 86.7612L175.434 86.7611L175.434 86.761L175.433 86.7609L175.432 86.7608L175.432 86.7607L175.431 86.7606L175.43 86.7604L175.43 86.7603L175.429 86.7602L175.428 86.7601L175.427 86.76L175.427 86.7599L175.426 86.7598L175.425 86.7596L175.425 86.7595L175.424 86.7594L175.423 86.7593L175.423 86.7592L175.422 86.7591L175.421 86.759L175.421 86.7588L175.42 86.7587L175.419 86.7586L175.419 86.7585L175.418 86.7584L175.417 86.7583L175.417 86.7582L175.416 86.7581L175.416 86.7581L175.416 86.7581L175.416 86.7581L175.416 86.758L175.416 86.758L175.416 86.758L175.415 86.758L175.415 86.7579L175.415 86.7579L175.415 86.7579L175.415 86.7579L175.415 86.7579L175.415 86.7578L175.414 86.7578L175.414 86.7578L175.414 86.7578L175.414 86.7577L175.414 86.7577L175.414 86.7577L175.414 86.7577L175.413 86.7577L175.413 86.7576L175.413 86.7576L175.413 86.7576L175.413 86.7576L175.413 86.7575L175.413 86.7575L175.413 86.7575L175.412 86.7575L175.412 86.7574L175.412 86.7574L175.412 86.7574L175.412 86.7574L175.412 86.7574L175.412 86.7573L175.411 86.7573L175.411 86.7573L175.411 86.7573L175.411 86.7572L175.411 86.7572L175.411 86.7572L175.411 86.7572L175.41 86.7571L175.41 86.7571L175.41 86.7571L175.41 86.7571L175.41 86.7571L175.41 86.757L175.41 86.757L175.41 86.757L175.409 86.757L175.409 86.7569L175.409 86.7569L175.409 86.7569L175.409 86.7569L175.409 86.7569L175.409 86.7568L175.408 86.7568L175.408 86.7568L175.408 86.7568L175.408 86.7567L175.408 86.7567L175.408 86.7567C170.989 86.0792 166.554 85.3991 162.223 84.2936C158.196 83.266 141.412 77.5992 137.781 75.7348C136.718 75.189 135.545 74.5295 134.296 73.8279L134.296 73.8277C132.988 73.0925 131.598 72.311 130.165 71.5656C131.524 65.8083 132.973 60.1072 135.082 54.6188C140.099 57.7046 145.934 59.7243 150.56 60.3299C150.875 60.3716 150.938 59.9418 150.67 59.833C149.8 59.4756 148.903 59.1158 147.988 58.749L147.988 58.7488C143.81 57.0735 139.27 55.2531 135.297 52.8531C134.61 52.3353 133.968 51.779 133.396 51.1779C131.785 49.4845 134.457 37.8974 138.74 36.7686C146.896 34.6177 159.195 37.2405 164.406 38.9424C172.112 41.4578 179.587 44.6681 186.564 48.6871L186.807 48.8266L187.032 48.9558C190.189 50.7682 193.899 52.8974 196.164 55.815C197.743 57.8429 194.291 68.5105 191.972 68.6797C188.899 68.9033 185.789 68.9001 182.552 68.5715C174.7 67.7727 166.925 65.9045 159.489 63.4469ZM171.482 88.2401C175.006 88.7801 178.519 89.3183 181.937 90.1464L181.933 90.1472C184.978 90.8836 173.743 119.469 171.189 119.81C164.561 120.696 156.795 118.413 150.581 116.586L150.581 116.586C149.627 116.305 148.71 116.036 147.84 115.79C147.023 115.559 146.204 115.33 145.385 115.1L145.384 115.1C138.67 113.218 131.879 111.315 125.513 108.556C124.915 108.297 124.278 108.034 123.618 107.761C121.432 106.858 118.991 105.85 116.881 104.54C113.411 102.387 120.868 71.0061 126.708 72.6918C126.811 72.6921 126.91 72.7231 127 72.7811C130.156 73.7449 133.381 75.5631 136.169 77.1345L136.169 77.1346L136.169 77.1347C137.236 77.7359 138.238 78.301 139.148 78.7682C142.272 80.3706 145.465 81.8744 148.716 83.2458C151.254 83.934 153.764 84.548 156.141 85.1292L156.144 85.1299L156.144 85.1299C157.537 85.4706 158.884 85.8 160.163 86.1264C163.882 87.0755 167.689 87.6588 171.482 88.2401ZM340.961 316.509C340.349 315.221 338.354 315.166 337.403 316.074C335.846 317.56 334.518 319.119 333.183 320.781C332.167 322.175 331.064 323.501 329.872 324.759C327.653 327.212 326.651 327.528 324.075 325.285C323.929 325.158 323.777 325.025 323.621 324.886C323.451 324.735 323.275 324.578 323.094 324.416L323.083 324.406L323.075 324.399L323.075 324.398C321.685 323.157 319.989 321.64 318.209 320.486C318.271 320.366 318.333 320.246 318.395 320.126C318.624 319.687 318.852 319.248 319.069 318.801C330.233 295.769 333.631 266.915 318.706 237.107C311.857 223.431 301.998 206.846 281.186 197.758C281.185 197.427 281.184 197.097 281.184 196.766C281.183 195.842 281.182 194.917 281.163 193.993C281.077 189.697 280.865 185.407 280.653 181.118C280.384 175.674 280.115 170.231 280.103 164.774C280.101 163.429 279.152 162.307 277.819 161.918C271.833 160.177 265.979 157.759 260.112 155.336L260.111 155.336L260.111 155.336L260.111 155.336L260.11 155.336L260.11 155.336L260.11 155.336L260.109 155.335L260.109 155.335L260.109 155.335L260.109 155.335L260.108 155.335L260.108 155.335L260.108 155.335L260.108 155.335L260.107 155.335L260.107 155.335L260.107 155.335L260.106 155.334L260.106 155.334L260.106 155.334L260.106 155.334L260.105 155.334L260.105 155.334L260.105 155.334L260.105 155.334L260.104 155.334L260.104 155.334L260.104 155.334L260.103 155.333L260.103 155.333L260.103 155.333L260.103 155.333L260.102 155.333L260.102 155.333L260.102 155.333L260.102 155.333L260.101 155.333L260.101 155.333L260.101 155.333L260.1 155.332L260.1 155.332L260.1 155.332L260.1 155.332L260.099 155.332L260.099 155.332L260.099 155.332L260.098 155.332L260.098 155.332L260.098 155.332L260.098 155.331L260.097 155.331L260.097 155.331L260.097 155.331L260.097 155.331L260.096 155.331L260.096 155.331L260.096 155.331C254.411 152.983 248.714 150.629 242.873 148.883C242.215 148.509 241.519 148.17 240.824 147.832C239.94 147.402 239.057 146.973 238.256 146.471C234.168 143.907 227.011 137.096 227.085 132.188C227.098 131.305 226.296 130.554 225.374 130.558C223.97 130.567 222.584 130.683 221.208 130.799C218.228 131.05 215.292 131.297 212.307 130.437C212.16 130.395 211.999 130.539 212.05 130.681C213.282 134.171 218.879 133.984 222.868 133.85L223.168 133.84C223.347 133.834 223.523 133.829 223.694 133.824C224.05 137.728 226.557 141.278 229.166 144.393C227.159 143.511 225.182 142.568 223.302 141.56C220.482 140.049 216.468 141.125 212.79 142.112C210.943 142.607 209.181 143.079 207.697 143.19C207.534 143.203 207.436 143.383 207.561 143.504C209.76 145.638 212.642 145.131 215.578 144.614C218.241 144.145 220.95 143.668 223.235 145.149C225.701 146.746 229.244 148.991 232.936 150.532C232.727 150.689 232.521 150.847 232.315 151.006L232.314 151.006C232.049 151.21 231.785 151.413 231.519 151.61C230.229 152.561 229.092 153.184 227.488 153.545C226.978 153.659 226.461 153.726 225.946 153.793L225.946 153.793C225.056 153.907 224.172 154.021 223.342 154.379C223.224 154.43 223.19 154.595 223.255 154.693C226.04 158.899 232.717 155.531 236.527 152.62C238.92 153.815 241.596 154.726 244.162 155.6C246.061 156.246 247.899 156.871 249.519 157.577C255.067 159.994 260.686 162.324 266.398 164.395C268.056 165.114 269.714 165.837 271.362 166.58C272.864 167.257 273.611 168.142 273.949 169.173C273.955 169.498 273.96 169.823 273.965 170.148V170.149V170.15V170.151V170.151V170.152V170.153V170.154V170.155V170.156V170.157V170.158V170.158V170.159V170.16V170.161V170.162V170.163V170.164V170.165V170.165V170.166V170.167V170.168V170.169V170.17V170.171V170.171V170.172V170.173V170.174V170.175V170.176V170.177V170.178V170.178V170.179V170.18V170.181V170.182V170.183V170.184V170.185V170.185V170.186V170.187V170.188V170.189V170.19V170.191V170.191V170.192V170.193V170.194V170.195V170.196V170.197V170.198V170.198V170.199V170.2V170.201V170.202V170.203V170.204V170.205V170.205V170.206V170.207V170.208V170.209V170.21V170.211V170.211V170.212V170.213V170.214V170.215V170.216V170.217V170.218V170.218V170.219V170.22V170.221V170.222V170.223V170.224V170.225V170.225V170.226V170.227V170.228V170.229V170.23V170.231V170.231V170.232V170.233V170.234V170.235V170.236V170.237V170.238V170.238V170.239V170.24V170.241C273.98 171.184 273.995 172.127 274.025 173.071L273.998 173.285L273.979 173.439C273.882 174.214 273.781 175.019 273.746 175.842C273.616 178.936 273.586 182.036 273.556 185.133V185.135L273.556 185.167C273.547 186.037 273.539 186.907 273.528 187.776C273.503 189.798 273.259 192.059 273.006 194.398L272.969 194.744C265.431 192.489 256.684 191.12 246.46 190.989C226.051 190.726 206.18 200.34 191.169 212.895C186.31 216.961 181.787 221.266 177.737 225.695C177.505 225.602 177.273 225.508 177.042 225.413C174.998 224.32 173.067 223.115 171.817 221.525C169.395 218.444 169.614 212.218 169.792 207.146C169.856 205.313 169.916 203.631 169.843 202.303C169.817 201.832 169.795 201.354 169.772 200.869C169.638 198.031 169.495 194.988 168.657 192.253C168.889 191.659 169.183 191.088 169.629 190.571C170.14 189.978 170.757 189.487 171.377 188.996L171.377 188.995L171.377 188.995L171.378 188.995L171.378 188.995L171.378 188.995L171.378 188.995L171.378 188.995L171.378 188.994L171.378 188.994L171.379 188.994L171.379 188.994L171.379 188.994L171.379 188.994L171.379 188.994L171.379 188.993L171.379 188.993L171.38 188.993L171.38 188.993L171.38 188.993L171.38 188.993L171.38 188.993C172.01 188.492 172.642 187.991 173.165 187.379C175.33 184.846 174.711 181.518 173.22 178.868C173.024 178.518 172.412 178.499 172.222 178.868C171.546 180.176 171.359 181.479 171.161 182.861C171.106 183.242 171.05 183.63 170.984 184.025C170.772 185.265 169.544 186.26 168.428 187.164L168.428 187.164L168.428 187.164L168.427 187.164L168.427 187.164L168.427 187.164L168.426 187.165C167.968 187.536 167.529 187.892 167.187 188.243C167.121 188.311 167.063 188.387 167.005 188.462C166.978 188.496 166.951 188.531 166.924 188.565C166.915 188.576 166.906 188.587 166.897 188.597C166.646 188.247 166.365 187.914 166.064 187.591C164.982 184.656 162.809 181.726 160.774 178.98L160.774 178.98C159.612 177.413 158.495 175.906 157.651 174.493C160.253 172.77 162.488 170.347 161.969 167.191C161.918 166.873 161.454 166.807 161.245 167.009C160.699 167.527 160.208 168.052 159.727 168.564C158.354 170.029 157.07 171.399 154.868 172.265C153.73 172.712 153.309 173.663 153.808 174.747C155.416 178.24 157.486 181.404 159.598 184.627C160.371 185.807 160.888 187.048 161.33 188.307C159.257 186.615 156.865 185.463 154.367 184.313C152.921 183.648 152.705 181.559 152.488 179.463C152.419 178.795 152.35 178.125 152.241 177.502C152.391 177.658 152.542 177.814 152.693 177.97C152.824 178.105 153.067 177.927 152.962 177.77C152.638 177.289 152.305 176.814 151.963 176.346C151.847 175.992 151.703 175.67 151.52 175.392C151.425 175.249 151.255 175.18 151.093 175.188C148.6 171.963 145.747 169.01 142.891 166.055L142.803 165.964C141.773 164.898 140.746 163.828 139.719 162.758C136.181 159.072 132.633 155.377 128.958 151.832C128.878 151.755 128.726 151.859 128.797 151.948V151.95C131.806 155.785 135.221 159.361 138.612 162.912L138.612 162.912L138.621 162.921C139.255 163.586 139.889 164.249 140.519 164.913C142.293 166.785 144.036 168.682 145.779 170.578C147.386 172.327 148.993 174.075 150.623 175.803C150.362 176.908 150.131 178.117 150.031 179.331C149.238 178.489 148.436 177.638 147.627 176.781L147.625 176.779L147.625 176.779C137.273 165.802 125.821 153.661 117.107 142.262C114.041 138.253 110.555 137.655 105.909 137.479C103.2 137.377 97.4916 137.131 90.6739 136.827C92.4875 138.497 93.4567 141.165 91.6231 143.374C89.8429 145.517 86.8128 146.011 84.2973 146.336C78.9768 147.023 70.9225 147.399 66.2949 143.959C63.091 141.576 63.6592 137.941 65.6733 135.69C61.8122 135.51 58.2674 135.342 55.3777 135.2C46.245 134.756 42.0474 134.905 37.1369 139.153C27.4985 147.488 12.524 165.645 4.01516 176.37C-1.74861 183.632 -0.566383 184.971 2.98239 188.989L2.98352 188.99C3.25212 189.294 3.53428 189.613 3.82801 189.952C5.80649 192.229 15.6833 202.764 18.1787 204.924C20.6763 207.087 23.4747 208.534 26.81 207.901C28.4454 207.592 33.1309 203.399 36.2902 200.428C36.6225 198.455 36.9331 196.406 37.25 194.314C38.6566 185.034 40.1884 174.926 44.2977 167.006C44.3757 166.855 44.6163 166.933 44.6163 167.088C44.647 170.587 43.8045 174.155 42.9829 177.636C42.7286 178.714 42.4762 179.783 42.2524 180.838C41.047 186.523 39.9286 192.223 38.8948 197.935L38.9171 197.914C37.6025 208.003 33.6634 252.318 35.7065 261.801C38.6497 275.468 90.5514 271.358 109.668 268.731C116.35 267.816 117.107 267.458 118.426 259.664C120.331 248.411 119.743 224.073 119.402 209.959C119.303 205.865 119.225 202.632 119.235 200.827C119.087 199.331 118.92 197.819 118.752 196.297C117.99 189.392 117.208 182.303 118.072 175.795C118.096 175.604 118.357 175.555 118.428 175.748C121.415 183.703 122.029 193.703 122.567 202.462L122.613 203.21C123.715 204.431 124.903 205.8 126.047 207.117L126.048 207.118L126.049 207.119L126.052 207.122C126.596 207.749 127.129 208.364 127.639 208.945C130.589 212.315 133.149 212.661 135.916 208.691C138.109 205.539 140.729 202.631 143.356 199.716C145.677 197.139 148.005 194.556 150.046 191.794C151.423 189.934 152.298 188.195 152.643 186.56C152.722 186.615 152.804 186.669 152.888 186.721C156.261 188.835 159.257 191.417 161.69 194.5C161.748 194.573 161.797 194.653 161.846 194.733L161.846 194.733C161.874 194.78 161.903 194.827 161.933 194.872V194.978C161.412 200.073 161.619 205.318 161.915 210.279C161.977 211.31 161.956 212.54 161.934 213.865C161.86 218.22 161.769 223.601 164.518 226.3C166.828 228.57 169.861 229.962 172.884 231.341C171.28 233.347 169.778 235.365 168.406 237.389C165.231 242.08 162.72 246.804 161.051 251.438C148.227 287.034 171.835 304.972 194.084 302.364C210.757 300.41 219.313 294.012 225.68 289.252C227.821 287.651 229.714 286.235 231.586 285.236C235.674 283.055 240.168 282.524 243.096 282.841C250.833 283.677 256.341 286.904 259.703 291.276C256.429 292.14 253.526 294.162 251.095 296.495C247.809 299.65 245.189 300.622 240.483 299.162C240.23 299.084 239.964 298.996 239.687 298.904C237.917 298.32 235.728 297.596 234 298.382C232.242 299.181 231.016 300.073 229.853 301.611C226.558 305.961 224.047 307.236 218.187 305.91C214.046 304.972 211.385 306.076 208.934 308.454C206.747 310.581 208.852 310.689 210.24 310.493C212.837 310.127 215.266 310.574 217.754 311.032L217.755 311.033C219.911 311.429 222.113 311.835 224.508 311.726C227.083 311.609 229.123 309.757 231.031 308.026C231.812 307.318 232.57 306.63 233.334 306.088C235.88 304.282 238.856 305.318 241.565 306.26C242.363 306.538 243.138 306.808 243.872 306.994C245.788 307.48 247.635 306.997 249.406 306.335C250.704 305.848 251.907 305.077 253.083 304.324L253.083 304.324L253.085 304.323C253.446 304.091 253.805 303.861 254.163 303.642C257.531 301.581 260.382 301.49 263.677 302.384C263.942 308.729 261.318 315.382 255.94 320.312C249.579 326.143 238.869 328.052 230.048 326.47C228.795 326.245 227.525 326.001 226.259 325.758L226.255 325.757L226.254 325.757L226.253 325.757L226.252 325.756L226.252 325.756L226.251 325.756L226.25 325.756L226.249 325.756C223.53 325.234 220.834 324.716 218.387 324.401C203.444 322.476 192.796 341.245 203.624 353.52C215.065 366.49 237.111 365.994 246.569 365.781L247.07 365.77C248.002 365.749 248.942 365.702 249.887 365.636C248.042 368.369 246.375 371.176 244.891 373.844C244.441 374.652 244.443 375.849 245.248 376.488C246.398 377.397 247.628 378.646 248.928 379.967C250.557 381.622 252.296 383.389 254.126 384.738C251.994 385.179 249.947 385.816 248.296 386.915C247.696 387.314 247.843 388.039 248.485 388.294C251.325 389.419 254.718 388.965 257.956 388.531C259.333 388.346 260.682 388.165 261.949 388.112C264.119 388.02 265.024 385.724 263.647 384.209C262.932 383.422 262.161 382.691 261.39 381.959C261.008 381.596 260.625 381.233 260.249 380.863C260.231 380.846 260.209 380.833 260.189 380.816C258.66 378.397 256.682 376.333 254.552 374.342C255.982 371.787 257.361 369.205 258.74 366.624L258.74 366.623L258.742 366.619L258.75 366.605C259.18 365.799 259.61 364.993 260.042 364.189C280.497 359.79 302.218 346.414 315.027 326.068C317.48 329.406 321.618 332.246 324.723 334.378C324.884 334.488 325.041 334.596 325.196 334.703C326.165 335.369 327.58 335.027 328.382 334.312C331.739 331.314 334.796 328.038 337.751 324.683C338.245 324.123 338.724 323.571 339.157 323.013C340.311 325.207 341.694 327.244 343.855 328.645C344.15 328.833 344.524 328.579 344.533 328.275C344.643 324.245 342.765 320.288 341.04 316.651L340.97 316.505L340.961 316.509ZM30.5912 142.161C28.8757 143.909 27.1595 145.658 25.2506 147.221L25.2528 147.223C25.1926 147.272 25.079 147.204 25.1347 147.136C27.2357 144.526 29.5685 142.028 31.9458 139.645C32.2087 139.382 32.4762 139.109 32.7487 138.83L32.75 138.829C34.5066 137.035 36.4707 135.029 38.7635 134.035C44.0239 131.754 50.162 132.238 55.7321 133.04C55.8524 133.055 55.8123 133.22 55.7053 133.229C54.1184 133.347 52.4041 133.304 50.6522 133.259C46.3558 133.151 41.8328 133.038 38.4048 135.281C35.44 137.219 33.0164 139.689 30.5913 142.161L30.5912 142.161ZM92.8794 272.576C99.7685 273.558 107.751 272.088 114.38 270.229C117.746 269.285 119.977 268.249 120.975 264.981C122.246 260.817 122.384 256.232 122.516 251.868C122.534 251.268 122.551 250.673 122.572 250.083C122.871 241.64 122.652 233.18 122.178 224.747C122.167 224.563 121.882 224.563 121.877 224.747C121.803 228.205 121.814 231.69 121.825 235.185V235.186V235.186V235.186V235.186V235.186V235.186V235.186V235.186V235.187V235.187V235.187V235.187V235.187V235.187V235.187V235.188V235.188V235.188V235.188V235.188V235.188V235.188V235.189V235.189V235.189V235.189V235.189V235.189V235.189V235.189V235.19V235.19V235.19V235.19V235.19V235.19V235.19V235.191V235.191V235.191V235.191V235.191V235.191V235.191V235.192V235.192V235.192V235.192V235.192V235.192V235.192V235.193V235.193V235.193V235.193V235.193V235.193V235.193V235.193V235.194V235.194V235.194V235.194V235.194V235.194V235.194V235.195V235.195V235.195V235.195V235.195V235.195V235.195V235.196V235.196V235.196V235.196V235.196V235.196V235.196V235.197V235.197V235.197V235.197V235.197V235.197V235.197V235.197V235.198V235.198V235.198V235.198V235.198V235.198V235.198V235.199V235.199V235.199V235.199V235.199V235.199V235.199V235.2V235.2V235.2V235.2V235.2V235.2V235.2V235.2V235.201V235.201V235.201V235.201V235.201V235.201V235.201V235.202V235.202V235.202C121.853 244.169 121.881 253.203 120.487 262.004C120.246 263.524 119.928 265.096 119.224 266.49C118.481 267.96 116.365 268.579 114.733 269.056C114.509 269.121 114.294 269.184 114.092 269.246C109.592 270.637 104.973 271.105 100.344 271.575H100.344C97.8518 271.828 95.3572 272.081 92.8772 272.478C92.826 272.487 92.826 272.569 92.8772 272.578L92.8794 272.576ZM17.3901 208.027L17.3908 208.027C19.6093 210.091 21.9165 212.237 25.1966 212.12C29.1603 211.978 32.6895 208.213 35.0578 205.644C35.1492 205.544 35.0289 205.368 34.9019 205.451C34.0531 206.011 33.2213 206.611 32.3876 207.212C30.6983 208.43 29.0013 209.654 27.1395 210.564C23.9772 212.115 21.6691 210.442 19.3196 208.739L19.3195 208.739C18.35 208.037 17.3734 207.329 16.3269 206.84C16.2489 206.802 16.1598 206.9 16.2289 206.959V206.964C16.6164 207.307 17.0019 207.666 17.3901 208.027ZM324.57 316.216C328.67 307.151 331.805 297.84 332.729 287.959C333.24 282.49 333.347 276.978 332.841 271.505C332.444 267.213 331.594 263.057 330.742 258.886C330.297 256.708 329.85 254.526 329.468 252.319C329.456 252.266 329.528 252.249 329.55 252.298C334.249 263.363 334.998 277.241 333.607 288.992C332.487 298.454 330.12 308.178 324.849 316.371C324.738 316.543 324.49 316.395 324.57 316.216ZM152.361 275.934C150.863 269.012 151.982 262.86 154.083 256.246C154.11 256.164 153.994 256.13 153.945 256.191C149.928 261.294 150.144 269.424 151.122 275.367C152.167 281.705 155.288 289.885 161.471 293.244C161.631 293.331 161.769 293.138 161.658 293.013C157.051 287.797 153.822 282.698 152.358 275.936L152.361 275.934ZM243.314 187.428C237.3 187.483 231.523 188.474 225.67 189.701C225.59 189.715 225.532 189.605 225.612 189.569C235.703 185.056 250 184.861 260.305 188.86C260.425 188.907 260.425 189.119 260.269 189.1C258.854 188.93 257.444 188.736 256.035 188.543C251.814 187.965 247.605 187.388 243.314 187.428ZM249.644 183.889C249.797 183.872 249.837 183.679 249.682 183.628C246.703 182.683 242.891 182.301 240.001 183.681C239.923 183.717 239.956 183.853 240.048 183.842C241.671 183.672 243.283 183.768 244.89 183.863C246.478 183.957 248.062 184.051 249.646 183.889H249.644ZM221.153 367.752C223.949 368.439 226.806 368.995 229.695 369.156V369.154C230.442 369.197 231.197 369.189 231.954 369.182H231.954H231.955H231.955H231.955H231.956H231.956H231.956H231.957H231.957H231.957H231.958H231.958H231.958H231.959H231.959H231.959H231.959H231.96H231.96H231.96H231.961H231.961H231.961H231.962H231.962H231.962H231.963H231.963H231.963H231.964H231.964H231.964H231.965H231.965H231.965H231.966H231.966H231.966H231.967H231.967H231.967H231.967H231.968H231.968H231.968H231.969H231.969H231.969H231.97H231.97H231.97H231.971H231.971H231.971H231.972H231.972H231.972H231.973H231.973H231.973H231.974H231.974H231.974H231.975H231.975H231.975H231.975H231.976H231.976H231.976H231.977H231.977H231.977H231.978H231.978H231.978H231.979H231.979H231.979H231.98H231.98H231.98H231.981H231.981H231.981H231.982C233.21 369.17 234.44 369.158 235.635 369.352C235.776 369.375 235.798 369.583 235.675 369.642C231.239 371.737 223.495 369.596 219.119 368.223C214.429 366.752 208.723 364.637 206.052 360.397C206.009 360.331 206.103 360.266 206.161 360.316C210.325 364.113 215.605 366.385 221.153 367.752ZM225.306 371.244C223.261 371.059 221.316 370.628 219.365 370.196L219.365 370.196L219.365 370.195L219.365 370.195L219.364 370.195L219.364 370.195L219.364 370.195L219.363 370.195L219.363 370.195L219.363 370.195L219.363 370.195L219.362 370.195L219.362 370.195L219.362 370.194L219.362 370.194L219.361 370.194L219.361 370.194C218.159 369.928 216.955 369.661 215.724 369.451C215.657 369.441 215.623 369.515 215.679 369.553C218.339 371.414 222.102 371.889 225.306 371.684C225.605 371.664 225.6 371.272 225.306 371.244ZM194.501 176.984C198.019 177.111 198.393 177.02 199.957 174.14V174.138C202.736 169.02 208.796 152.724 198.721 144.293C193.521 139.943 183.452 144.257 183.316 152.853C174.576 146.948 163.369 154.912 170.487 166.281C176.855 176.452 191.024 176.879 194.195 176.974C194.312 176.978 194.415 176.981 194.501 176.984ZM153.909 160.155C155.35 159.09 157.944 159.068 159.673 159.351V159.353C160.132 159.427 160.468 159.847 160.604 160.24C160.7 160.52 160.7 160.637 160.604 160.917C160.468 161.309 160.134 161.729 159.673 161.804C157.941 162.084 155.35 162.065 153.909 160.999C153.661 160.817 153.661 160.337 153.909 160.155ZM162.19 150.19C163.117 150.32 164.16 150.487 165.002 150.884V150.882C166.359 151.521 165.55 153.237 164.3 153.35C163.275 153.443 162.07 152.9 161.19 152.45C161.108 152.408 161.021 152.365 160.933 152.321C160.322 152.017 159.592 151.654 159.269 151.098C159.093 150.793 159.194 150.422 159.506 150.239C160.149 149.865 161.052 150.01 161.811 150.132C161.879 150.143 161.945 150.153 162.01 150.164C162.072 150.173 162.132 150.182 162.19 150.19ZM169.369 141.518C171.044 142.471 172.352 144.049 173.546 145.492V145.49C174.529 146.678 172.998 148.24 171.771 147.181C170.262 145.883 169.064 143.979 168.567 142.106C168.451 141.671 168.948 141.278 169.369 141.518ZM183.377 140.576C183.283 141.106 182.679 141.268 182.211 141.206C181.14 141.07 180.38 139.487 179.999 138.628C179.622 137.777 179.275 136.884 179.535 135.954C179.645 135.572 180.157 135.453 180.449 135.725C181.058 136.291 181.533 137.018 181.989 137.715C182.065 137.831 182.14 137.946 182.216 138.059C182.341 138.247 182.48 138.427 182.616 138.604C183.079 139.204 183.519 139.776 183.377 140.576ZM193.171 135.82C193.325 136.441 193.474 137.042 193.496 137.69C193.538 138.982 191.654 139.099 191.241 137.981C190.765 136.686 190.401 134.577 190.958 133.281C191.183 132.761 192.084 132.436 192.398 133.102C192.688 133.717 192.837 134.374 192.986 135.034C193.028 135.223 193.071 135.413 193.117 135.602C193.135 135.675 193.153 135.747 193.171 135.82ZM202.691 136.873C202.484 138.199 202.21 139.358 200.63 139.472H200.628C200.312 139.494 200.018 139.046 199.891 138.838C199.57 138.317 199.761 137.709 199.938 137.144C199.992 136.971 200.046 136.801 200.082 136.64C200.17 136.251 200.229 135.825 200.29 135.387C200.443 134.282 200.607 133.104 201.267 132.283C201.488 132.012 201.827 132.01 202.045 132.283C202.996 133.467 202.912 135.475 202.691 136.873ZM183.229 184.751C183.237 183.242 183.244 181.724 183.853 180.313C184.123 179.689 184.916 179.689 185.186 180.313C185.792 181.718 185.801 183.23 185.809 184.733C185.811 185.03 185.812 185.327 185.818 185.622C185.852 187.218 183.187 187.218 183.221 185.622C183.226 185.333 183.228 185.042 183.229 184.751ZM192.823 180.994C192.915 180.878 193.019 180.837 193.169 180.861H193.166C194.532 181.064 194.947 182.639 195.12 183.78C195.276 184.805 195.517 186.885 193.853 186.883C192.59 186.879 192.583 185.701 192.577 184.781V184.781C192.576 184.636 192.575 184.497 192.569 184.37C192.558 184.116 192.526 183.847 192.494 183.57C192.389 182.669 192.276 181.699 192.823 180.994ZM203.725 178.253C204.166 178.514 204.585 178.815 204.926 179.189L204.924 179.186C205.439 179.754 205.895 180.367 206.35 180.979L206.362 180.995L206.526 181.215C207.6 182.652 205.04 184.109 204.03 182.605C203.984 182.536 203.938 182.468 203.892 182.399C203.859 182.352 203.827 182.305 203.795 182.258L203.688 182.102L203.634 182.023L203.63 182.019L203.627 182.014L203.623 182.009C203.339 181.595 203.054 181.182 202.794 180.755C202.493 180.262 202.114 179.545 202.13 178.913C202.114 178.838 202.101 178.762 202.081 178.688C201.967 178.255 202.384 177.824 202.852 177.954C202.952 177.981 202.99 177.998 203.008 178.013H203.03C203.286 178.013 203.513 178.128 203.725 178.253ZM210.768 171.804C211.158 171.831 211.546 171.857 211.924 171.868H211.922C213.86 171.921 213.822 174.868 211.922 174.711C210.166 174.567 207.985 174.374 206.708 173.065C206.463 172.812 206.461 172.314 206.833 172.15C208.057 171.617 209.433 171.712 210.768 171.804ZM212.537 163.154C213.639 163.021 215.009 162.856 215.79 163.76V163.758C216.195 164.227 216.195 164.753 215.79 165.222C214.981 166.158 213.192 166.054 212.067 165.769C211.94 165.738 211.808 165.707 211.672 165.676C210.893 165.496 210.008 165.293 209.536 164.685C209.46 164.588 209.46 164.397 209.536 164.299C210.124 163.541 211.505 163.278 212.437 163.166L212.537 163.154ZM212.728 154.536C212.047 154.623 211.265 154.587 210.596 154.385H210.594C209.983 154.203 209.85 153.551 210.24 153.108C210.725 152.554 211.461 152.159 212.16 151.922L212.171 151.918C212.876 151.679 213.844 151.35 214.571 151.608C215.511 151.943 215.906 153.006 215.164 153.747C214.606 154.303 213.68 154.418 212.894 154.515L212.892 154.516L212.891 154.516C212.836 154.522 212.782 154.529 212.728 154.536ZM166.432 172.763C166.981 172.299 167.636 171.751 168.422 171.751V171.749C168.707 171.749 169.289 171.853 169.456 172.125C170.211 173.353 168.919 174.431 168.025 175.134C167.009 175.934 165.927 176.269 164.639 176.301C164.383 176.307 164.173 176.052 164.251 175.817C164.679 174.529 165.37 173.665 166.432 172.763ZM121.921 110.383C121.222 110.08 120.476 109.771 119.704 109.451C119.125 109.212 118.531 108.966 117.93 108.712C114.588 118.123 111.907 129.819 119.084 136.068C121.578 138.24 124.905 139.428 128.072 140.559C128.546 140.729 129.017 140.897 129.481 141.067C134.786 143.01 140.629 144.933 146.261 145.786C154.167 146.983 158.857 142.876 162.29 136.443C164.529 132.248 166.45 127.929 168.207 123.548C162.333 123.027 156.237 121.236 151.067 119.717C149.962 119.392 148.9 119.08 147.89 118.795C146.942 118.527 145.992 118.261 145.04 117.994L145.03 117.992C137.22 115.803 129.324 113.59 121.92 110.382L121.921 110.383ZM151.845 35.0773C152.565 35.6388 153.933 35.7467 154.806 35.5383C154.895 35.5169 154.898 35.3831 154.807 35.3652C154.471 35.3009 154.128 35.2726 153.786 35.2443C153.687 35.2362 153.588 35.228 153.49 35.2189C153.267 35.1985 153.048 35.1537 152.829 35.109C152.516 35.0449 152.202 34.9809 151.881 34.989C151.84 34.9913 151.807 35.0473 151.845 35.0773ZM165.303 134.267C166.319 132.456 167.331 130.651 168.475 128.966L168.475 128.968C168.522 128.897 168.655 128.94 168.623 129.026C166.282 135.275 162.011 143.799 155.449 147.051C150.329 149.588 144.041 148.587 138.865 146.684C138.741 146.638 138.787 146.475 138.919 146.494C139.82 146.631 140.74 146.798 141.672 146.967C146.351 147.815 151.319 148.717 155.547 146.162C160.211 143.343 162.767 138.787 165.303 134.267ZM124.305 70.1602C117.536 73.9344 115.682 83.6796 115.331 90.4641C115.323 90.6224 115.59 90.6573 115.623 90.4999C115.769 89.7904 115.91 89.0794 116.051 88.3683L116.051 88.3677C116.565 85.7797 117.078 83.1904 117.867 80.6647C119.165 76.5075 121.453 73.4839 124.397 70.2739C124.453 70.2127 124.383 70.1157 124.306 70.1585L124.305 70.1602ZM179.436 108.163C181.389 104.119 183.248 100.268 183.932 95.6777L183.934 95.6764C183.941 95.6247 184.015 95.6436 184.022 95.6877C184.656 100.94 181.106 106.754 178.289 111.023C178.221 111.128 178.069 111.036 178.119 110.927C178.554 109.989 178.998 109.071 179.436 108.163Z" fill="#070707"/>
<path d="M145.396 181.9C135.21 170.539 123.396 157.609 114.61 145.542C111.793 141.674 108.589 141.097 104.32 140.927C101.83 140.828 96.5845 140.591 90.3194 140.298C91.986 141.909 92.8766 144.483 91.1916 146.614C89.5557 148.682 86.7711 149.159 84.4596 149.473C79.5703 150.136 72.1687 150.498 67.9162 147.179C64.972 144.88 65.4941 141.373 67.345 139.201C63.7967 139.027 60.5392 138.865 57.8837 138.728C49.4912 138.3 45.6338 138.443 41.1213 142.542C32.264 150.584 18.5031 168.104 10.6839 178.452C4.98587 185.991 6.67501 186.914 10.5119 191.558C12.3301 193.755 21.4064 203.92 23.6995 206.005C25.9947 208.091 28.5663 209.487 31.6313 208.877C33.1342 208.578 37.4399 204.533 40.3432 201.666C42.0037 191.314 43.0745 178.782 47.7018 169.417C47.7734 169.271 47.9945 169.347 47.9945 169.497C48.0314 173.917 46.6924 178.454 45.8222 182.764C44.7145 188.249 43.6867 193.749 42.7367 199.26C42.7428 199.254 42.751 199.246 42.7572 199.24C41.5492 208.976 37.9293 251.734 39.8068 260.884C42.5115 274.072 90.2067 270.106 107.774 267.571C113.914 266.689 114.61 266.343 115.822 258.823C118.081 244.816 116.527 209.797 116.566 202.051C115.812 194.06 114.528 185.561 115.497 177.897C115.519 177.713 115.759 177.666 115.824 177.852C118.648 185.747 119.164 195.731 119.67 204.35C121.166 206.091 122.835 208.142 124.289 209.885C126.999 213.136 129.352 213.47 131.895 209.639C135.691 203.91 140.881 199.015 144.88 193.335C148.012 188.89 148.321 185.164 145.39 181.896L145.396 181.9Z" fill="white"/>
<path d="M60.2834 171.18C60.2834 170.764 60.3469 168.639 60.4063 168.123C60.4063 167.914 60.6601 166.514 60.7216 166.151V166.051C60.785 165.688 60.9099 165.168 61.2867 165.013C61.346 165.013 61.8477 164.962 61.9746 164.962C62.163 164.962 62.6032 165.013 62.6646 165.013C62.853 165.013 63.8501 165.168 64.2309 165.168C65.23 165.426 64.8554 166.931 64.9168 167.396C64.9782 168.328 65.1686 169.261 65.1686 170.197V170.297C65.1686 170.402 65.0376 171.022 65.0376 171.126V171.178C65.0376 171.333 65.1686 171.902 65.1686 172.009V184.494C65.0376 185.895 65.0376 186.517 65.0376 187.813C65.0376 191.075 65.2915 194.34 65.2915 197.604V197.762C65.2915 198.124 65.226 199.729 65.1686 200.092C65.0376 200.247 64.538 200.454 64.3517 200.454H61.4075C60.4042 200.454 60.4042 199.213 60.4042 198.486V198.228C60.4042 197.706 60.2814 195.27 60.2814 194.752V171.178L60.2834 171.18Z" fill="#C08D16"/>
<path d="M76.2149 224.159C72.335 220.085 69.8924 217.505 65.5109 212.966L65.6358 240.048V240.252C65.5723 241.233 65.5723 241.851 64.1964 241.851H63.3201C62.882 241.851 61.504 241.747 61.3177 241.747C60.5663 241.696 60.5028 241.024 60.5028 240.51V221.013C60.3145 218.64 60.3145 216.578 60.3145 214.205C60.3145 213.173 60.3759 210.593 60.3759 210.44C60.3759 210.079 60.4393 208.376 60.5008 208.015C60.6891 206.263 62.6281 206.212 64.3193 206.212C64.8823 206.212 65.3839 206.314 65.7586 206.676C69.702 210.7 73.3342 214.774 76.1494 217.303H76.2743L76.3378 207.501C76.9008 205.851 81.7205 205.747 81.7205 207.966L81.3458 241.649C81.2824 241.958 80.7828 242.114 80.5309 242.114C80.4675 242.114 78.6534 242.216 78.0883 242.216H77.9634C76.4606 242.216 76.3357 241.288 76.3357 240.308L76.2108 224.164L76.2149 224.159Z" fill="#C08D16"/>
<path d="M93.7492 167.038C91.2554 167.851 88.5282 170.93 87.1298 174.063C83.8928 167.894 75.1481 162.37 71.7658 170.709C68.324 179.191 72.9922 190.534 79.8552 197.426C83.6184 201.206 86.3518 201.578 90.1989 197.809C94.3614 193.728 103.442 184.574 103.475 173.538C103.487 168.856 98.2577 165.566 93.7512 167.04L93.7492 167.038Z" fill="#070707"/>
<path d="M30.198 150.326C34.4321 146.688 37.6343 141.999 42.2861 138.805C46.7209 135.759 53.1498 137.219 58.1845 136.826C58.2828 136.817 58.3196 136.658 58.2091 136.643C53.0905 135.869 47.4497 135.403 42.6157 137.604C40.1813 138.711 38.1502 141.123 36.3505 143.017C34.1659 145.316 32.0222 147.726 30.0915 150.245C30.0403 150.31 30.1447 150.376 30.2 150.328L30.198 150.326Z" fill="white"/>
<path d="M92.3462 271.281C98.6769 272.229 106.013 270.811 112.104 269.017C115.198 268.106 117.247 267.107 118.165 263.954C119.493 259.384 119.475 254.288 119.633 249.578C119.907 241.432 119.706 233.269 119.27 225.132C119.26 224.954 118.998 224.954 118.994 225.132C118.752 237.032 119.497 249.273 117.716 261.081C117.495 262.547 117.202 264.064 116.555 265.409C115.779 267.023 113.369 267.573 111.84 268.069C105.479 270.133 98.8571 270.092 92.3442 271.187C92.2971 271.195 92.2971 271.275 92.3442 271.283L92.3462 271.281Z" fill="white"/>
<path d="M125.353 154.89C128.637 159.286 132.45 163.33 136.125 167.398C139.89 171.569 143.504 175.87 147.312 179.996C147.433 180.127 147.656 179.955 147.56 179.803C144.896 175.651 141.559 172.035 138.223 168.411C134.022 163.846 129.86 159.19 125.501 154.775C125.427 154.702 125.288 154.802 125.353 154.888V154.89Z" fill="white"/>
<path d="M21.9081 207.972C24.2995 210.198 26.607 213.081 30.1491 212.948C33.7915 212.81 37.0346 209.178 39.2111 206.699C39.295 206.603 39.1845 206.433 39.0677 206.512C36.707 208.148 34.4897 210.134 31.9344 211.447C27.8293 213.56 25.2905 209.467 21.9982 207.854C21.9265 207.817 21.8446 207.911 21.9081 207.968V207.972Z" fill="white"/>
<path d="M24.2727 186.425C24.3484 186.386 24.2379 186.404 24.1724 186.425C24.0208 186.466 23.8796 186.572 23.7485 186.652C23.3964 186.867 23.079 187.094 22.9337 187.494C22.8763 187.651 22.9418 187.844 23.0565 187.958C23.0852 187.987 23.1179 188.012 23.1527 188.032C23.292 188.12 23.4947 188.12 23.6339 188.032C23.9574 187.832 24.0966 187.514 24.2317 187.172C24.287 187.033 24.3505 186.898 24.3853 186.753C24.3955 186.71 24.4488 186.462 24.4058 186.56C24.4447 186.47 24.3648 186.38 24.2706 186.427L24.2727 186.425Z" fill="#C08D16"/>
<path d="M25.2411 187.756C24.6863 188.145 23.8652 188.749 24.1089 189.51C24.1437 189.623 24.2624 189.701 24.3812 189.666C25.0589 189.457 25.2432 188.671 25.5974 188.114C25.7325 187.899 25.4561 187.604 25.2411 187.758V187.756Z" fill="#C08D16"/>
<path d="M134.257 183.043C134.698 183.442 135.181 183.759 135.67 184.095C135.973 184.304 136.43 184.67 136.784 184.316C137.464 183.636 134.718 182.94 134.431 182.819C134.294 182.762 134.128 182.926 134.259 183.043H134.257Z" fill="#C08D16"/>
<path d="M135.48 184.969C135.869 185.448 136.25 185.925 136.788 186.253C136.88 186.31 137.036 186.323 137.126 186.253C137.175 186.214 137.21 186.183 137.247 186.134C137.341 186.003 137.282 185.839 137.194 185.729C136.809 185.237 136.205 185.018 135.717 184.662C135.523 184.519 135.349 184.812 135.48 184.971V184.969Z" fill="#C08D16"/>
<path d="M62.0852 255.035C61.8129 255.455 61.6675 255.868 61.5488 256.358C61.4526 256.747 61.1393 257.437 61.3727 257.807C61.4976 258.006 61.7535 258.081 61.9624 257.961C62.335 257.746 62.3411 257.123 62.423 256.742C62.5377 256.21 62.595 255.717 62.6175 255.178C62.6298 254.879 62.2326 254.808 62.0852 255.035Z" fill="#C08D16"/>
<path d="M63.8437 255.133C63.5836 255.768 63.4751 256.525 63.6451 257.203C63.6778 257.328 63.7843 257.432 63.9092 257.467C63.9829 257.488 64.0361 257.488 64.1098 257.467C64.2347 257.434 64.3412 257.33 64.374 257.203C64.5439 256.525 64.4354 255.768 64.1754 255.133C64.1098 254.969 63.9092 254.969 63.8437 255.133Z" fill="#C08D16"/>
<path d="M107.01 148.586C107.426 148.807 107.894 148.93 108.326 149.12C108.715 149.29 108.932 149.485 109.369 149.469C109.444 149.466 109.524 149.387 109.491 149.307C109.162 148.504 107.786 148.087 107.008 148.418C106.94 148.447 106.948 148.555 107.008 148.588L107.01 148.586Z" fill="#C08D16"/>
<path d="M108.466 150.429C108.597 150.685 108.806 150.705 109.068 150.808C109.407 150.937 109.678 151.098 110.038 150.955C110.114 150.924 110.163 150.859 110.14 150.773C110.026 150.337 109.59 150.142 109.16 150.12C109.084 150.116 108.298 150.103 108.464 150.429H108.466Z" fill="#C08D16"/>
<path d="M257.296 285.597C257.344 285.492 257.251 285.344 257.126 285.335C252.773 284.963 248.993 287.377 246.034 290.359C243.238 293.177 241.009 294.046 237.005 292.741C235.414 292.224 233.189 291.232 231.489 292.044C229.993 292.758 228.95 293.555 227.961 294.929C225.157 298.815 223.021 299.954 218.035 298.77C214.511 297.932 212.247 298.918 210.162 301.043C208.301 302.942 210.092 303.039 211.273 302.864C215.398 302.254 219.023 304.174 223.413 303.966C226.499 303.818 228.683 300.595 230.922 298.929C233.727 296.84 237.145 299.007 239.888 299.738C241.519 300.172 243.09 299.74 244.597 299.149C246.042 298.58 247.348 297.577 248.644 296.743C251.969 294.607 254.701 294.84 258.119 296.068C258.189 296.218 258.36 296.328 258.521 296.269C258.547 296.26 258.572 296.246 258.599 296.235C258.9 296.322 259.154 296.131 259.262 295.869C262.223 293.685 261.093 286.091 257.296 285.602V285.597Z" fill="#070707"/>
<path d="M322.494 308.239C321.973 307.088 320.276 307.039 319.467 307.85C318.142 309.177 317.012 310.57 315.876 312.055C315.012 313.3 314.074 314.485 313.059 315.609C311.171 317.8 310.318 318.083 308.127 316.079C306.826 314.891 305.037 313.086 303.136 311.791C303.382 311.291 303.632 310.794 303.867 310.286C313.367 289.71 316.257 263.933 303.558 237.302C297.731 225.085 289.343 210.268 271.635 202.149C271.631 201.029 271.637 199.906 271.616 198.786C271.449 190.077 270.733 181.399 270.714 172.683C270.712 171.481 269.904 170.478 268.771 170.131C258.739 167.068 249.141 161.657 239.037 158.486C237.767 157.726 236.326 157.132 235.109 156.33C231.631 154.04 225.542 147.955 225.604 143.571C225.616 142.782 224.933 142.111 224.148 142.115C220.367 142.139 216.744 143.129 213.03 142.007C212.905 141.969 212.769 142.098 212.812 142.225C213.934 145.565 219.32 145.135 222.719 145.032C223.022 148.52 225.155 151.692 227.375 154.475C225.667 153.686 223.985 152.844 222.385 151.944C218.782 149.915 212.884 153.104 209.108 153.4C208.97 153.411 208.886 153.572 208.992 153.68C212.562 157.316 218.241 152.369 222.329 155.149C224.427 156.577 227.441 158.583 230.582 159.959C230.177 160.279 229.779 160.609 229.377 160.922C228.279 161.771 227.312 162.328 225.947 162.651C224.763 162.929 223.534 162.891 222.42 163.396C222.319 163.441 222.291 163.589 222.346 163.676C224.715 167.433 230.397 164.425 233.638 161.824C237.179 163.682 241.45 164.77 244.692 166.252C249.412 168.412 254.193 170.493 259.053 172.343C260.464 172.986 261.874 173.632 263.277 174.296C264.555 174.901 265.19 175.691 265.478 176.612C265.497 177.772 265.508 178.933 265.542 180.095C265.449 180.887 265.34 181.717 265.305 182.57C265.163 186.121 265.161 189.679 265.12 193.232C265.097 195.127 264.869 197.258 264.644 199.457C258.231 197.442 250.788 196.219 242.089 196.102C224.725 195.867 207.817 204.456 195.046 215.673C190.911 219.305 187.063 223.151 183.617 227.107C183.42 227.024 183.223 226.941 183.025 226.855C181.287 225.879 179.644 224.802 178.58 223.382C175.775 219.635 177.134 210.68 176.901 206.21C176.751 203.33 176.726 200.092 175.892 197.232C176.089 196.701 176.339 196.191 176.719 195.728C177.596 194.659 178.844 193.962 179.727 192.877C181.57 190.614 181.043 187.641 179.774 185.274C179.608 184.961 179.086 184.944 178.925 185.274C178.192 186.764 178.135 188.248 177.871 189.88C177.617 191.444 175.642 192.57 174.641 193.649C174.55 193.747 174.478 193.861 174.394 193.965C174.18 193.653 173.941 193.355 173.685 193.067C172.239 188.947 168.503 184.838 166.527 181.365C168.742 179.825 170.643 177.661 170.201 174.842C170.158 174.557 169.763 174.499 169.585 174.679C167.794 176.466 166.689 178.33 164.16 179.374C163.191 179.774 162.833 180.624 163.257 181.592C164.626 184.713 166.387 187.539 168.184 190.419C168.842 191.473 169.282 192.581 169.657 193.706C167.894 192.195 165.858 191.165 163.733 190.138C161.599 189.107 162.615 184.244 161.311 182.169C161.142 181.899 160.689 181.924 160.611 182.26C159.83 185.607 159.25 190.166 162.474 192.29C165.344 194.178 167.894 196.485 169.964 199.239C170.042 199.341 170.101 199.461 170.171 199.571C170.171 199.603 170.171 199.635 170.171 199.666C169.727 204.217 169.904 208.903 170.156 213.335C170.379 217.282 169.32 224.503 172.37 227.648C174.336 229.676 176.916 230.92 179.488 232.152C178.123 233.943 176.846 235.746 175.678 237.555C172.976 241.746 170.84 245.966 169.42 250.106C158.509 281.906 178.595 297.932 197.526 295.602C216.482 293.268 223.108 283.847 229.434 280.3C232.912 278.351 236.736 277.877 239.227 278.16C258.445 280.342 261.497 300.718 250.155 311.636C244.743 316.845 235.63 318.551 228.126 317.137C224.766 316.504 221.257 315.702 218.204 315.289C205.489 313.569 196.43 330.337 205.643 341.303C215.553 353.1 234.817 352.427 242.608 352.247C243.401 352.228 244.201 352.186 245.005 352.127C243.435 354.569 242.017 357.077 240.755 359.46C240.372 360.182 240.373 361.251 241.058 361.822C243.262 363.651 245.812 367.025 248.612 369.192C246.798 369.586 245.056 370.155 243.651 371.137C243.141 371.494 243.266 372.142 243.812 372.369C247.257 373.802 251.657 372.367 255.268 372.206C257.114 372.125 257.884 370.074 256.712 368.72C255.802 367.668 254.786 366.728 253.821 365.731C253.806 365.716 253.787 365.704 253.77 365.689C252.47 363.528 250.786 361.683 248.974 359.905C250.574 356.904 252.098 353.862 253.645 350.834C271.049 346.905 289.53 334.954 300.429 316.779C302.624 319.914 306.404 322.559 309.08 324.492C309.905 325.087 311.109 324.782 311.791 324.143C314.648 321.465 317.249 318.538 319.763 315.541C320.183 315.04 320.591 314.547 320.959 314.049C321.941 316.009 323.118 317.829 324.957 319.08C325.207 319.249 325.525 319.021 325.533 318.75C325.628 315.101 323.986 311.52 322.502 308.235L322.494 308.239Z" fill="white"/>
<path d="M162.028 271.99C160.754 265.806 161.705 260.31 163.493 254.401C163.516 254.327 163.417 254.297 163.375 254.352C159.957 258.911 160.141 266.174 160.974 271.483C161.863 277.146 164.518 284.454 169.779 287.454C169.915 287.532 170.033 287.36 169.938 287.248C166.018 282.588 163.271 278.033 162.026 271.991L162.028 271.99Z" fill="white"/>
<path d="M224.4 194.951C229.38 193.855 234.296 192.97 239.412 192.921C244.282 192.873 249.029 193.806 253.838 194.415C253.971 194.432 253.971 194.242 253.869 194.2C245.101 190.627 232.937 190.801 224.351 194.834C224.283 194.866 224.332 194.964 224.4 194.951Z" fill="white"/>
<path d="M244.799 189.759C244.929 189.744 244.964 189.571 244.831 189.526C242.296 188.682 239.053 188.341 236.594 189.573C236.528 189.605 236.556 189.727 236.634 189.717C239.379 189.416 242.088 190.051 244.8 189.759H244.799Z" fill="white"/>
<path d="M210.783 273.561C207.89 277.999 204.199 279.525 199.291 280.892C199.206 280.916 199.225 281.041 199.312 281.043C204.042 281.174 209.302 278.139 210.949 273.631C210.987 273.529 210.836 273.478 210.783 273.561Z" fill="#C08D16"/>
<path d="M210.555 271.711C211.262 270.535 211.774 269.231 212.106 267.842C213.239 264.541 213.023 261.188 211.844 258.183C209.609 249.541 202.436 241.816 193.016 244.567C192.893 244.603 192.925 244.773 193.045 244.783C200.112 245.342 205.283 247.243 208.925 253.4C208.732 253.175 208.538 252.947 208.333 252.731C202.836 246.965 193.409 244.845 186.203 252.159C179.43 259.033 180.971 268.056 186.04 273.722C187.934 275.84 190.323 277.485 192.95 278.376C189.943 277.893 186.999 276.717 184.289 275.131C184.222 275.091 184.126 275.174 184.177 275.242C188.933 281.733 199.699 280.406 205.78 276.837C207.88 275.605 209.465 273.796 210.557 271.711H210.555ZM199.803 259.364C198.927 260.822 196.65 261.556 195.013 260.348C193.422 259.173 193.396 256.98 194.235 255.656C195.174 254.174 197.17 253.685 198.844 255.01C200.137 256.034 200.609 258.02 199.803 259.364Z" fill="#C08D16"/>
<path d="M214.098 258.35C214.657 263.413 213.399 267.461 211.833 272.189C211.793 272.306 211.962 272.365 212.024 272.268C214.415 268.6 215.763 262.545 214.214 258.335C214.193 258.276 214.091 258.28 214.098 258.35Z" fill="#C08D16"/>
<path d="M197.494 281.022C197.113 281.022 196.757 280.983 196.383 281.079C196.345 281.089 196.339 281.144 196.372 281.163C196.884 281.464 197.888 281.692 198.377 281.284C198.425 281.244 198.408 281.163 198.358 281.134C198.076 280.969 197.818 281.022 197.494 281.022Z" fill="#C08D16"/>
<path d="M268.006 244.531C271.55 232.283 267.867 217.438 255.551 211.853C255.369 211.771 255.227 212.006 255.394 212.12C263.697 217.796 267.746 225.875 267.825 234.821C266.855 229.181 264.017 223.928 260.025 219.741C250.105 209.337 233.093 205.514 220.09 218.706C216.771 222.073 214.568 225.727 213.287 229.468C214.083 224.292 216.047 219.29 219.144 214.822C219.29 214.611 218.974 214.387 218.801 214.556C211.869 221.305 210.426 231.574 212.106 241.025C212.466 243.981 213.302 246.86 214.532 249.566C214.834 250.314 215.152 251.046 215.49 251.757C216.968 254.877 219.455 257.829 222.506 260.305C226.418 263.743 231.138 266.162 236.19 267.015C237.345 267.328 238.526 267.474 239.718 267.489C234.932 267.741 230.111 266.761 225.231 265.03C225.18 265.011 225.137 265.087 225.178 265.121C232.126 270.772 243.134 269.07 250.689 265.84C259.251 262.177 266.643 253.901 268.002 244.536L268.006 244.531ZM225.4 240.933C224.524 242.39 222.248 243.124 220.61 241.916C219.017 240.741 218.995 238.55 219.833 237.225C220.771 235.742 222.767 235.253 224.441 236.578C225.732 237.602 226.206 239.589 225.4 240.933Z" fill="#C08D16"/>
<path d="M220.227 213.388C220.619 213.148 220.943 212.761 221.286 212.454C221.654 212.124 222.03 211.815 222.333 211.425C222.473 211.243 222.244 211.015 222.054 211.064C221.173 211.292 220.168 212.243 219.823 213.079C219.728 213.309 220.037 213.504 220.227 213.388Z" fill="#C08D16"/>
<path d="M189.689 246.036C190.288 245.88 190.853 245.649 191.452 245.492C191.674 245.433 192.375 245.213 192.184 244.84C191.934 244.354 191.246 244.601 190.861 244.735C190.243 244.951 189.793 245.221 189.534 245.833C189.488 245.939 189.56 246.068 189.687 246.034L189.689 246.036Z" fill="#C08D16"/>
<path d="M253.094 210.645C253.208 210.698 253.348 210.551 253.238 210.458C248.696 206.697 240.937 205.635 235.449 207.646C235.392 207.667 235.415 207.743 235.474 207.736C241.931 206.839 247.218 207.923 253.096 210.645H253.094Z" fill="#C08D16"/>
<path d="M208.178 242.879C207.189 238.656 206.607 234.8 206.554 230.457C206.554 230.415 206.491 230.406 206.481 230.448C205.558 234.415 206.362 239.266 208.038 242.94C208.076 243.024 208.199 242.963 208.18 242.881L208.178 242.879Z" fill="#C08D16"/>
<path d="M256.735 264.911C256.129 264.913 255.541 265.451 255.025 265.736C254.982 265.76 254.988 265.834 255.039 265.844C255.668 265.963 256.538 265.696 256.832 265.082C256.868 265.006 256.826 264.911 256.733 264.911H256.735Z" fill="#C08D16"/>
<path d="M214.479 252.669C211.75 247.71 209.647 242.68 208.917 237.029C208.208 231.543 209.367 226.63 210.897 221.426C210.91 221.381 210.845 221.354 210.823 221.394C205.371 230.423 208.009 244.879 214.345 252.773C214.407 252.851 214.527 252.752 214.481 252.669H214.479Z" fill="#C08D16"/>
<path d="M178.704 260.242C179.024 255.217 181.695 251.501 185.09 248.057C185.157 247.99 185.072 247.88 184.99 247.928C176.543 252.855 175.531 267.121 182.632 273.527C182.709 273.597 182.842 273.508 182.782 273.411C180.156 269.222 178.38 265.3 178.702 260.24L178.704 260.242Z" fill="#C08D16"/>
<path d="M273.577 239.412C273.605 245.224 272.913 250.597 269.31 255.359C269.26 255.423 269.363 255.491 269.416 255.44C273.474 251.698 274.555 244.627 273.656 239.399C273.649 239.354 273.575 239.365 273.575 239.41L273.577 239.412Z" fill="#C08D16"/>
<path d="M271.016 232.451C271.001 232.406 270.94 232.427 270.946 232.472C272.716 245.475 268.267 256.782 257.562 264.528C257.462 264.6 257.545 264.744 257.657 264.695C269.042 259.563 274.826 244.049 271.014 232.451H271.016Z" fill="#C08D16"/>
<path d="M202.525 181.05C201.194 183.623 200.876 183.704 197.882 183.59C195.827 183.513 183.07 183.452 177.451 174.028C171.394 163.871 180.929 156.757 188.366 162.033C188.482 154.353 197.048 150.499 201.473 154.385C210.045 161.917 204.889 176.476 202.525 181.048V181.05ZM168.249 167.837C166.778 167.585 164.572 167.604 163.345 168.556C163.135 168.719 163.135 169.147 163.345 169.31C164.572 170.262 166.776 170.279 168.249 170.029C168.642 169.962 168.926 169.587 169.042 169.236C169.123 168.986 169.123 168.882 169.042 168.632C168.926 168.281 168.64 167.905 168.249 167.839V167.837ZM172.784 160.273C172.067 159.919 171.18 159.769 170.391 159.654C169.696 159.551 168.75 159.305 168.107 159.697C167.842 159.86 167.756 160.192 167.906 160.465C168.221 161.034 168.99 161.377 169.54 161.672C170.289 162.074 171.314 162.56 172.187 162.476C173.25 162.376 173.938 160.842 172.784 160.272V160.273ZM180.054 155.457C179.037 154.167 177.925 152.757 176.499 151.906C176.141 151.692 175.718 152.042 175.817 152.431C176.239 154.105 177.259 155.805 178.543 156.966C179.587 157.911 180.89 156.516 180.054 155.455V155.457ZM187.426 151.627C187.824 151.682 188.338 151.538 188.417 151.064C188.575 150.139 187.9 149.555 187.43 148.816C186.98 148.105 186.531 147.32 185.926 146.731C185.678 146.488 185.242 146.594 185.149 146.935C184.927 147.766 185.223 148.564 185.543 149.324C185.868 150.092 186.514 151.506 187.426 151.627ZM197.027 148.486C197.007 147.84 196.851 147.246 196.705 146.621C196.529 145.864 196.411 145.095 196.093 144.388C195.826 143.792 195.06 144.082 194.868 144.547C194.394 145.705 194.703 147.589 195.109 148.746C195.46 149.745 197.063 149.641 197.027 148.486ZM203.097 150.079C204.441 149.976 204.675 148.941 204.851 147.756C205.039 146.507 205.111 144.714 204.301 143.656C204.115 143.411 203.827 143.413 203.64 143.656C202.855 144.68 202.895 146.323 202.631 147.548C202.498 148.162 202.112 148.903 202.468 149.512C202.576 149.697 202.826 150.097 203.096 150.079H203.097ZM188.823 186.565C188.205 188.068 188.315 189.708 188.285 191.308C188.256 192.733 190.523 192.733 190.495 191.308C190.463 189.708 190.575 188.068 189.957 186.565C189.727 186.007 189.052 186.007 188.823 186.565ZM196.749 187.054C196.622 187.033 196.533 187.069 196.455 187.173C195.846 187.996 196.197 189.222 196.239 190.189C196.275 191.019 196.087 192.43 197.331 192.434C198.747 192.436 198.542 190.578 198.409 189.662C198.262 188.642 197.909 187.236 196.747 187.054H196.749ZM206.752 185.56C206.462 185.226 206.106 184.957 205.73 184.724C205.55 184.612 205.357 184.51 205.139 184.51C205.13 184.51 205.13 184.51 205.12 184.51C205.105 184.496 205.073 184.481 204.987 184.457C204.589 184.341 204.235 184.726 204.331 185.113C204.349 185.179 204.36 185.247 204.373 185.313C204.36 185.878 204.682 186.519 204.938 186.959C205.266 187.524 205.639 188.062 205.99 188.612C206.849 189.956 209.027 188.654 208.113 187.37C207.675 186.754 207.245 186.13 206.75 185.558L206.752 185.56ZM212.707 179.02C211.285 178.978 209.721 178.656 208.375 179.272C208.058 179.418 208.06 179.863 208.269 180.089C209.355 181.259 211.211 181.431 212.705 181.56C214.322 181.7 214.354 179.067 212.705 179.02H212.707ZM215.996 171.776C215.311 170.944 214.094 171.126 213.143 171.246C212.35 171.346 211.175 171.581 210.674 172.258C210.61 172.345 210.61 172.516 210.674 172.603C211.146 173.24 212.102 173.38 212.828 173.572C213.785 173.826 215.307 173.919 215.996 173.083C216.341 172.664 216.341 172.193 215.996 171.775V171.776ZM211.577 163.401C212.145 163.581 212.811 163.614 213.391 163.536C214.087 163.443 214.955 163.363 215.463 162.831C216.094 162.169 215.759 161.219 214.959 160.92C214.337 160.689 213.508 160.986 212.908 161.2C212.312 161.413 211.687 161.765 211.273 162.26C210.942 162.656 211.055 163.238 211.575 163.401H211.577ZM175.694 178.916C175.024 178.916 174.467 179.405 174.001 179.82C173.096 180.625 172.509 181.397 172.145 182.548C172.078 182.758 172.257 182.986 172.475 182.98C173.57 182.951 174.492 182.652 175.356 181.937C176.116 181.31 177.216 180.347 176.573 179.249C176.431 179.007 175.936 178.914 175.694 178.914V178.916Z" fill="#070707"/>
<path d="M191.46 178.72C191.581 178.832 191.484 179.029 191.331 179.031C185.881 179.137 179.018 174.686 178.732 168.74C178.726 168.605 178.906 168.533 178.995 168.63C180.921 170.702 182.205 172.935 184.701 174.466C187.02 175.888 189.427 176.857 191.458 178.72H191.46ZM194.87 179.192C194.331 178.868 193.501 178.864 192.887 178.891C192.565 178.906 192.457 179.249 192.642 179.482C193.13 180.097 194.155 180.362 194.87 180.051C195.226 179.896 195.16 179.367 194.87 179.192Z" fill="#C08D16"/>
<path d="M177.522 91.375C171.249 89.7797 164.619 89.3437 158.279 87.6448C155.219 86.825 151.721 85.985 148.162 84.9717C145.289 83.6992 142.468 82.3038 139.707 80.8168C136.801 79.2502 132.827 76.4978 128.971 75.2612C128.892 75.2074 128.804 75.1787 128.713 75.1784C123.552 73.6142 116.961 102.733 120.028 104.732C122.456 106.314 125.38 107.422 127.657 108.458C133.97 111.331 140.755 113.204 147.388 115.171C153.173 116.885 161.267 119.849 168.023 118.901C170.28 118.585 180.209 92.0592 177.518 91.3758L177.522 91.375Z" fill="#070707"/>
<path d="M124.483 110.153C123.402 109.662 122.196 109.154 120.956 108.603C118.002 117.336 115.633 128.188 121.976 133.988C124.509 136.304 128.017 137.415 131.163 138.626C135.852 140.429 141.016 142.213 145.993 143.005C152.98 144.116 157.125 140.304 160.159 134.335C162.137 130.442 163.835 126.435 165.387 122.37C159.087 121.783 152.498 119.46 147.433 117.959C139.716 115.671 131.825 113.493 124.481 110.153L124.483 110.153Z" fill="white"/>
<path d="M157.53 66.894C157.372 66.7952 157.502 66.5378 157.682 66.5997C164.254 68.8802 171.125 70.6137 178.065 71.355C180.925 71.6599 183.674 71.6628 186.389 71.4554C188.439 71.2984 191.489 61.3996 190.094 59.5178C187.992 56.6756 184.484 54.6397 181.61 52.9037C175.444 49.1743 168.838 46.1954 162.028 43.8612C157.423 42.2819 146.554 39.8482 139.346 41.844C135.56 42.8916 133.199 53.6436 134.623 55.215C135.128 55.7727 135.696 56.289 136.302 56.7694C140.583 59.4841 145.607 61.3997 149.889 63.2463C150.125 63.3472 150.07 63.7461 149.791 63.7073C145.703 63.1454 140.547 61.2713 136.113 58.4078C134.249 63.5007 132.968 68.7909 131.768 74.1333C134.242 75.4853 136.574 76.965 138.498 78.002C141.707 79.732 156.54 84.9905 160.099 85.944C165.648 87.431 171.391 88.0892 177.001 89.1122C179.077 83.8606 181.223 78.633 183.063 73.303C181.351 73.2666 165.926 72.0809 157.53 66.894Z" fill="white"/>
<path d="M140.927 46.8171C141.477 46.5423 141.963 46.1768 142.531 45.9235C143.144 45.6502 143.808 45.4932 144.437 45.253C144.523 45.2196 144.505 45.1071 144.416 45.0968C143.216 44.9721 141.388 45.5506 140.809 46.6965C140.768 46.7764 140.848 46.8558 140.927 46.8155L140.927 46.8171Z" fill="#C08D16"/>
<path d="M186.159 60.8674C185.784 57.8859 176.686 51.5022 170.253 49.9118C170.154 49.8853 170.064 50.0288 170.165 50.0782C175.415 52.7106 181.578 56.2649 184.072 59.2547C185.092 60.4789 185.497 61.6097 184.972 62.5427C184.982 62.4291 184.99 62.3166 184.983 62.1935C184.916 60.9582 183.554 59.8445 182.728 59.0947C180.946 57.4768 178.738 56.3125 176.597 55.2481C172.316 53.1179 167.633 51.7845 163.076 50.3892C158.694 49.0476 154.262 47.831 149.713 47.2137C147.063 46.8542 144.944 47.0745 142.568 48.3441C141.566 48.8792 140.88 49.6665 140.774 50.5203C140.088 49.6271 139.866 48.7228 140.337 47.8319C140.462 47.5952 140.212 47.3162 139.978 47.5013C136.068 50.5946 141.831 53.3322 144.499 54.5343C150.995 57.4613 157.757 59.8648 164.521 62.0825C169.503 63.7165 176.742 66.8787 182.151 66.1617C185.167 65.763 186.462 63.2908 186.156 60.8665L186.159 60.8674ZM169.578 56.1235C165.537 55.1262 161.468 54.1196 157.441 53.08C157.392 53.0668 157.404 52.9965 157.452 52.9941C161.506 52.8408 165.998 54.2871 169.634 55.9931C169.708 56.0284 169.655 56.1424 169.58 56.124L169.578 56.1235ZM175.367 59.3226C175.47 59.3572 175.428 59.5031 175.323 59.4837C170.618 58.6314 165.992 57.1884 161.445 55.7171C158.054 54.6206 154.145 53.9491 151.16 51.92C151.09 51.8724 151.15 51.7772 151.223 51.8105C155.098 53.5634 159.35 54.5334 163.41 55.7734C167.386 56.9876 171.416 58.0264 175.367 59.321L175.367 59.3226ZM147.449 49.4605C154.669 49.624 162.078 50.9544 168.681 53.9513C168.77 53.992 168.706 54.1272 168.618 54.1037C164.894 53.1229 161.281 51.787 157.494 51.0339C154.205 50.3801 150.628 50.5535 147.437 49.5548C147.386 49.5396 147.394 49.4596 147.449 49.4605ZM175.407 61.6964C167.679 60.1162 159.824 57.69 152.371 55.105C149.837 54.226 146.758 53.3906 144.813 51.4419C143.742 50.3684 144.913 49.8324 145.848 49.6539C145.958 49.6337 146.035 49.7844 145.926 49.8423C143.331 51.2583 150.557 53.8872 151.625 54.2536C154.304 55.1716 157.037 55.8953 159.742 56.7312C164.971 58.3478 170.244 59.8341 175.459 61.4965C175.585 61.5371 175.536 61.7221 175.406 61.6959L175.407 61.6964ZM177.763 62.278C177.638 62.253 177.676 62.075 177.79 62.0681C178.881 61.9859 180.169 62.2712 181.217 61.9571C182.927 61.4475 179.976 59.5576 179.598 59.3093C176.911 57.5412 174.022 56.3345 171.116 54.9865C171.044 54.9536 171.095 54.8459 171.167 54.8636C174.012 55.5608 176.909 56.8569 179.359 58.4672C180.427 59.1706 181.849 59.9929 182.395 61.2178C183.282 63.2096 178.447 62.4133 177.764 62.2816L177.763 62.278Z" fill="#C08D16"/>
<path d="M154.241 68.1257C159.498 72.1503 167.154 73.458 173.582 74.0212C173.681 74.0288 173.7 73.8681 173.604 73.8493C170.42 73.2201 167.233 72.6157 164.088 71.8073C160.651 70.9238 157.528 69.4529 154.304 68.0162C154.229 67.9825 154.175 68.0757 154.239 68.1253L154.241 68.1257Z" fill="#C08D16"/>
<path d="M128.228 101.5C122.42 105.391 124.123 94.9292 124.682 92.1538C125.075 90.1991 125.633 88.2509 126.477 86.4424C127.675 83.874 129.381 83.3363 131.878 83.9455C132.021 83.9804 132.115 83.8361 132.057 83.713C130.941 81.2751 128.463 81.7994 126.746 83.3004C123.724 85.939 123.089 91.5509 122.577 95.2093C122.155 98.2198 121.956 101.553 124.468 103.714C126.247 105.242 128.233 103.714 128.705 101.869C128.772 101.608 128.472 101.34 128.227 101.503L128.228 101.5Z" fill="#C08D16"/>
<path d="M139.68 84.8018C134.883 81.5537 132.728 87.9004 132.001 92.1303C131.018 95.0657 130.362 98.1143 129.941 101.171C129.935 101.214 129.947 101.25 129.948 101.291C129.942 101.317 129.928 101.337 129.924 101.363C129.654 103.479 129.915 106.469 132.609 106.764C135.175 107.045 136.726 104.646 137.478 102.555C138.86 98.673 140.09 94.8089 140.814 90.7491C141.136 88.9463 141.479 86.0206 139.68 84.8018ZM132.796 105.34C131.031 105.298 131.183 102.829 131.328 101.572C131.331 101.562 131.336 101.557 131.337 101.545C131.788 98.0946 132.774 94.8284 133.643 91.517C133.791 91.1634 133.928 90.8035 134.055 90.4307C134.44 89.3027 134.839 88.2267 135.433 87.1855C136.585 85.164 139.016 85.8566 139.265 88.0191C139.786 92.5681 137.543 98.028 136.068 102.177C135.544 103.647 134.591 105.384 132.796 105.34Z" fill="#C08D16"/>
<path d="M145.316 96.6915C144.725 96.6082 144.065 96.5254 143.448 96.6011C143.642 96.0564 143.825 95.5071 144.028 94.9649C144.603 93.4383 145.167 91.6576 146.23 90.3796C147.166 89.2525 149.735 90.3581 151.071 90.304C151.206 90.2991 151.301 90.1212 151.188 90.0208C149.42 88.4408 146.046 87.2804 144.507 89.8427C141.22 95.3202 140.092 102.024 137.666 107.893C137.249 108.903 138.897 109.331 139.308 108.333C140.668 105.036 141.714 101.63 142.861 98.2561C143.651 98.5309 144.578 98.412 145.397 98.3372C146.133 98.2695 146.89 98.279 147.489 97.7915C147.602 97.7005 147.583 97.5175 147.49 97.421C146.931 96.8284 146.076 96.7976 145.316 96.6915Z" fill="#C08D16"/>
<path d="M153.057 100.21C152.377 99.4689 151.067 99.5162 150.122 99.3417C150.18 99.21 150.233 99.0755 150.29 98.9455C150.934 97.4906 151.646 96.0605 152.451 94.6896C153.746 92.4841 155.248 92.8267 157.237 92.0518C157.342 92.0099 157.415 91.8637 157.311 91.7742C150.741 86.1088 145.146 106.94 144.32 110.141C144.121 110.915 145.3 111.467 145.656 110.699C147.122 107.534 148.17 104.196 149.457 100.948C149.496 100.962 149.521 100.984 149.565 100.993C150.577 101.184 152.199 101.577 153.055 100.808C153.23 100.65 153.208 100.374 153.057 100.21Z" fill="#C08D16"/>
<path d="M158.622 94.9328C155.831 98.741 153.873 104.041 152.587 108.557C152.251 110.064 152.053 112.093 153.288 113.291C154.465 114.434 156.073 114.836 157.587 114.185C159.905 113.191 161.02 108.892 160.494 106.672C160.436 106.426 160.095 106.396 159.971 106.602C159.061 108.124 158.828 109.949 157.91 111.476C157.438 112.259 156.753 112.725 155.84 112.46C154.32 112.017 154.451 110.332 154.718 109.128C156.046 104.47 158.032 98.8762 161.236 95.163C162.353 93.8671 162.704 99.4475 162.7 99.6073C162.595 102.694 159.902 101.455 157.841 101.306C157.38 101.273 157.298 101.998 157.739 102.102C159.623 102.547 162.648 104.167 163.84 101.727C164.951 99.4513 164.86 95.6298 163.664 93.4389C162.268 90.8781 159.572 93.6385 158.622 94.9344L158.622 94.9328Z" fill="#C08D16"/>
<path d="M171.796 95.5923C168 91.2618 162.341 109.198 161.867 111.247C161.862 111.268 161.85 111.28 161.846 111.302C161.632 112.554 161.337 114.349 162.319 115.381C163.202 116.308 164.66 116.432 165.782 115.837C168.028 114.646 169.665 111.073 169.484 108.599C169.467 108.362 169.19 108.134 168.959 108.299C167.67 109.226 167.335 110.808 166.665 112.176C166.26 113.004 165.704 113.931 164.806 114.283C163.133 114.941 163.453 112.679 163.609 111.772C163.612 111.761 163.606 111.753 163.609 111.741C164.184 109.135 164.974 106.435 166.029 103.876C167.843 104.865 171.032 105.757 172.188 103.726C173.411 101.581 173.484 97.513 171.795 95.5887L171.796 95.5923ZM166.362 103.093C167.027 101.579 167.787 100.122 168.665 98.7847C170.761 95.5901 171.321 100.238 171.083 101.973C170.779 104.188 168.187 103.415 166.362 103.093Z" fill="#C08D16"/>
<path d="M121.653 129.116C125.248 134.61 132.649 138.186 139.012 139.084C139.192 139.11 139.337 138.86 139.146 138.765C136.5 137.442 133.664 136.593 130.964 135.382C127.473 133.816 124.666 131.469 121.767 129.03C121.708 128.98 121.606 129.043 121.653 129.116Z" fill="#C08D16"/>
<path d="M140.208 139.159C140.164 139.566 140.759 139.749 141.054 139.855C141.616 140.056 142.213 140.335 142.772 140.017C142.879 139.956 142.889 139.817 142.811 139.73C142.386 139.255 141.653 139.226 141.069 139.046C140.916 138.998 140.242 138.853 140.209 139.157L140.208 139.159Z" fill="#C08D16"/>
<path d="M133.796 45.6003C134.727 43.9163 135.136 42.1538 136.776 40.9212C138.108 39.9205 139.893 39.638 141.503 39.5137C144.309 39.2961 147.161 39.8997 149.947 40.1625C150.072 40.1754 150.088 39.983 149.975 39.9526C143.756 38.2369 135.061 37.3996 133.687 45.554C133.677 45.6163 133.761 45.661 133.796 45.6003Z" fill="white"/>
<path d="M150.927 40.2747C151.564 40.7958 152.773 40.8958 153.545 40.7025C153.624 40.6826 153.626 40.5585 153.545 40.5419C153.162 40.4649 152.77 40.4435 152.381 40.4061C151.903 40.36 151.442 40.18 150.96 40.1927C150.923 40.1949 150.894 40.2469 150.927 40.2747Z" fill="white"/>
<path d="M165.625 127.397C162.092 132.863 159.973 139.69 154.199 143.354C149.719 146.197 144.297 144.427 139.505 143.661C139.388 143.644 139.347 143.795 139.457 143.838C144.031 145.604 149.588 146.533 154.114 144.179C159.913 141.161 163.687 133.251 165.755 127.452C165.784 127.373 165.666 127.333 165.625 127.398L165.625 127.397Z" fill="white"/>
<path d="M126.589 72.8293C120.607 76.3315 118.968 85.3743 118.658 91.6699C118.651 91.8168 118.887 91.8492 118.916 91.7031C119.517 88.6483 120.01 85.5645 120.899 82.5767C122.046 78.7192 124.068 75.9134 126.67 72.9348C126.719 72.878 126.658 72.788 126.589 72.8277L126.589 72.8293Z" fill="white"/>
<path d="M179.284 96.5077C178.544 101.724 176.246 105.911 174.146 110.658C174.102 110.759 174.237 110.845 174.297 110.747C176.786 106.786 179.924 101.391 179.363 96.5171C179.357 96.4761 179.292 96.4586 179.286 96.5065L179.284 96.5077Z" fill="white"/>
<path d="M202.281 106.14C202.012 106.056 201.884 105.853 201.887 105.521C202.123 84.0741 206.419 61.9659 214.657 39.8112C216.88 33.8343 219.453 27.6191 223.198 22.6648C227.196 17.3754 232.174 14.0223 238.412 12.4132C240.67 11.8313 243.077 11.4361 245.568 11.2369L245.61 11.2336L245.652 11.2269C249.316 10.6515 252.903 10.6312 256.318 11.1655C258.048 11.4362 259.837 11.8576 261.641 12.4201C263.044 12.8579 264.489 13.391 265.936 14.0057L265.97 14.0195L266.004 14.0303C268.445 14.8872 270.791 15.8962 272.978 17.0283C278.83 20.061 283.517 23.6023 286.906 27.555C287.841 28.6447 288.705 29.8791 289.629 31.437L289.671 31.5059L289.721 31.5677C292.664 35.2214 294.54 38.9809 295.298 42.7411C296.862 50.4928 290.498 58.4294 283.923 62.524C277.115 66.762 269.519 70.2167 262.171 73.5575C258.318 75.309 254.335 77.1219 250.531 79.0173C233.031 87.7394 217.384 95.7898 203.114 105.98C202.862 106.16 202.544 106.221 202.283 106.139L202.281 106.14Z" fill="#C08D16"/>
<path d="M296.389 42.5208C295.516 38.1852 293.356 34.3077 290.587 30.8682C289.759 29.4688 288.848 28.1078 287.751 26.8291C283.855 22.2877 278.767 18.7732 273.49 16.0385C271.21 14.8574 268.823 13.8392 266.371 12.9786C263.16 11.6159 259.846 10.5873 256.49 10.0628C252.837 9.49084 249.123 9.55087 245.478 10.1239C242.999 10.3218 240.541 10.711 238.133 11.3317C223.908 15.0005 218.332 26.7252 213.614 39.4211C205.723 60.642 201.023 82.8287 200.773 105.508C200.756 107.181 202.544 107.757 203.763 106.888C218.502 96.3625 234.857 88.0764 251.028 80.0149C262.045 74.5223 274.046 69.983 284.512 63.4695C291.208 59.3004 298.096 50.9632 296.391 42.5198L296.389 42.5208ZM272.471 42.8694C273.263 41.7114 273.875 40.2865 274.64 39.2356C276.103 37.2202 277.949 36.1617 279.773 34.5755C279.854 34.5052 279.807 34.3453 279.691 34.352C277.455 34.4775 275.61 36.4232 274.229 38.0108C273.365 39.0044 272.203 40.413 271.499 41.8521C270.982 41.3149 270.465 40.7808 269.945 40.2512C272.087 37.2537 274.074 35.0618 277.576 33.3295C280.518 31.8745 283.368 31.6753 286.448 31.3776C287.307 32.3284 288.111 33.3096 288.839 34.3201C289.121 34.8399 289.394 35.3639 289.663 35.8914C287.28 35.4481 284.112 36.1683 282.512 36.6454C278.678 37.7891 275.513 40.8995 274.17 44.6557C273.602 44.0598 273.036 43.4643 272.471 42.8709L272.471 42.8694ZM269.793 25.5327C268.009 25.151 266.122 26.7375 264.866 27.8213C263.505 28.9963 261.908 30.6733 261.141 32.4228C260.518 31.9644 259.881 31.5201 259.232 31.0916C259.418 30.8415 259.591 30.5803 259.762 30.3798C260.878 29.0856 262.035 27.8667 263.321 26.741C266.633 23.8413 270.652 22.6462 274.723 21.4476C276.322 22.5119 277.872 23.6469 279.365 24.8383C276.777 24.9477 274.045 26.2045 271.955 27.3135C269.39 28.6737 264.962 31.5088 263.99 34.6618C263.345 34.1177 262.69 33.5867 262.017 33.072C263.098 31.7436 263.987 30.283 265.212 29.0374C266.583 27.6432 268.426 26.9746 269.829 25.7107C269.885 25.6603 269.869 25.5481 269.79 25.5317L269.793 25.5327ZM253.399 19.9604C251.952 20.3584 250.825 21.4497 249.901 22.5943C249.3 23.3403 248.26 24.546 247.93 25.6816C247.116 25.3847 246.286 25.0945 245.444 24.8201C246.815 21.7983 248.567 19.7558 251.382 17.872C253.772 16.2728 256.411 15.4485 259.024 14.4563C260.865 14.8722 262.686 15.3811 264.468 15.9864C264.661 16.0648 264.853 16.1477 265.046 16.2276C262.712 16.5302 260.493 17.7014 258.512 19.0408C256.205 20.6001 251.983 23.9231 251.074 26.8962C250.385 26.6153 249.674 26.3393 248.953 26.065C249.37 25.3539 249.653 24.4776 250.072 23.8283C251.001 22.3818 252.315 21.3307 253.461 20.0772C253.504 20.0296 253.471 19.9401 253.4 19.9609L253.399 19.9604ZM234.309 17.7653C232.592 18.5076 231.338 20.613 230.761 22.4315C228.977 22.5264 227.239 22.807 225.575 23.3237C228.842 19.4237 233.072 16.3604 238.9 14.6577C240.513 14.1863 242.159 13.8571 243.818 13.6293C242.827 14.2191 241.944 14.8008 241.27 15.247C239.74 16.257 234.795 19.861 235.065 22.5308C233.99 22.4297 232.923 22.3687 231.865 22.3803C232.5 20.7727 233.63 19.5783 234.645 18.1322C234.804 17.9066 234.53 17.6694 234.309 17.7653ZM237.311 20.5814C238.556 18.6579 240.667 17.1845 242.542 15.9523C244.1 14.9293 245.774 14.0649 247.478 13.3035C247.88 13.2887 248.283 13.2923 248.686 13.291C246.215 14.7977 244.153 16.9741 243.362 19.2603C243.319 19.3901 243.486 19.4919 243.584 19.4018C245.539 17.591 246.99 15.651 249.351 14.2818C250.029 13.8883 250.729 13.6019 251.441 13.3591C253.147 13.4609 254.848 13.665 256.541 13.9588C254.036 14.7243 251.655 15.9718 249.575 17.4699C247.837 18.7219 243.843 21.8574 244.426 24.5028C241.808 23.6927 239.09 23.0379 236.381 22.6806C236.693 21.9999 236.885 21.2369 237.309 20.5825L237.311 20.5814ZM253.509 25.4958C254.817 23.8607 256.331 22.4119 257.915 21.0494C260.511 18.8169 263.444 17.5467 266.699 16.9493C266.756 16.9756 266.814 17.0019 266.871 17.0296C266.312 17.3069 265.809 17.5919 265.419 17.8181C263.428 18.9699 260.763 20.8742 259.813 23.0365C259.777 23.1208 259.884 23.1855 259.954 23.1528C261.952 22.2079 263.596 20.2557 265.471 19.0463C266.342 18.4838 267.273 18.0321 268.246 17.6876C269.885 18.5022 271.488 19.3997 273.049 20.3682C269.709 20.7904 266.208 22.5611 263.802 24.3234C262.829 25.0343 258.882 27.9781 257.833 30.2101C256.267 29.2616 254.626 28.3917 252.862 27.6402C252.594 27.5254 252.311 27.4109 252.037 27.2958C252.602 26.781 252.997 26.134 253.509 25.4958ZM267.303 32.508C268.629 31.1176 270.218 29.9825 271.842 28.9702C274.745 27.1584 277.664 26.6308 280.805 26.0178C281.166 26.3234 281.526 26.6301 281.879 26.9414C281.168 27.0379 280.474 27.1693 279.853 27.2889C277.733 27.6914 275.181 28.6217 273.891 30.4405C273.818 30.543 273.945 30.6635 274.05 30.6137C276.064 29.6376 277.827 28.6426 280.064 28.2089C281.034 28.0218 282.067 28.0406 283.088 28.0278C283.442 28.3525 283.797 28.6792 284.142 29.0111C284.529 29.381 284.909 29.76 285.283 30.1421C279.5 29.4083 270.72 34.1062 268.995 39.3017C267.638 37.9468 266.253 36.6324 264.817 35.3782C265.739 34.5363 266.441 33.4129 267.301 32.5105L267.303 32.508ZM289.844 53.8142C286.757 58.2236 282.312 60.8275 277.655 63.1443C254.423 74.7039 230.313 85.1403 208.532 99.3703C210.869 97.0074 213.421 94.8568 216.001 92.7744C221.688 88.1867 228.276 85.0374 234.08 80.6859C234.164 80.6231 234.084 80.4727 233.984 80.5041C227.584 82.4817 221.68 86.6719 216.306 90.5724C212.382 93.4197 207.66 97.0337 204.398 101.243C204.519 96.4942 204.856 91.7711 205.394 87.0796C206.104 87.2466 206.859 87.225 207.443 86.9752C210.086 85.8455 211.465 82.7419 212.459 80.2372C213.558 77.4651 214.245 74.0766 212.487 71.4305C211.52 69.978 209.69 69.7601 208.155 70.3365C209.427 64.3616 210.984 58.4395 212.783 52.5714C213.855 53.2651 215.284 53.6317 216.639 53.5203C221.352 53.1288 224.892 49.5944 226.669 45.4444C228.217 41.8311 227.483 37.686 223.947 35.666C222.353 34.7548 220.426 34.609 218.778 35.1916C220.316 31.453 222.094 27.9334 224.371 24.8492C228.567 23.9468 234.073 24.7607 237.874 25.4667C243.141 26.445 248.511 28.0706 253.36 30.3351C263.344 34.998 269.553 43.382 277.172 50.8425C277.219 50.9033 277.273 50.9615 277.34 51.0185C280.401 53.6587 284.212 54.8723 287.761 52.2559C290.74 50.0572 292.82 45.9716 290.386 42.6451C288.24 39.7099 283.953 41.3145 282.282 43.7546C280.393 46.5097 282.678 49.5523 285.772 48.4941C286.143 48.3674 286.125 47.8196 285.704 47.7919C284.537 47.7164 282.98 47.4748 283.309 45.8956C283.53 44.8432 284.679 43.9666 285.564 43.4889C287.762 42.3031 289.694 44.3683 289.294 46.5587C288.924 48.5853 287.216 50.1748 285.491 51.101C283.365 52.2435 281.191 51.3113 279.464 49.9661C278.662 48.7812 278.334 47.5658 278.693 45.8192C279.103 43.8202 280.354 42.4557 281.766 41.0955C281.841 41.0218 281.771 40.9157 281.678 40.9264C279.057 41.2267 277.285 45.1211 277.526 48.1281C276.656 47.2468 275.802 46.3587 274.953 45.4705C276.965 42.9371 278.545 40.193 281.632 38.7023C283.452 37.8241 285.467 37.3872 287.472 37.2493C288.608 37.1715 289.605 37.4793 290.615 37.745C291.049 38.5845 291.501 39.4146 291.98 40.2269C293.428 44.506 293.134 49.1022 289.839 53.8078L289.844 53.8142Z" fill="white"/>
<path d="M240.083 53.6042C236.963 52.654 233.477 53.6148 230.511 55.6031C225.631 58.4788 222.133 64.455 222.401 69.8613C222.839 78.7411 235.833 73.4282 239.304 70.2895C242.886 67.052 247.276 55.7919 240.082 53.6023L240.083 53.6042Z" fill="white"/>
<path d="M232.52 40.2745C231.806 45.9896 237.631 48.6659 242.392 46.4441C247.239 44.1814 249.757 37.3011 247.417 32.5394C246.164 29.9866 243.498 28.6836 240.812 29.9052C239.477 30.5111 238.411 31.2965 237.513 32.235C237.045 32.6085 236.628 32.988 236.304 33.2925C234.433 35.047 232.842 37.7002 232.52 40.2745Z" fill="white"/>
<path d="M252.323 46.9366C249.474 49.5156 248.141 53.3722 250.571 56.6564C250.957 57.5223 251.565 58.3171 252.424 58.9626C257.827 63.0192 267.362 57.6927 268.636 51.6755C269.415 47.9925 266.858 44.1541 263.228 43.2924C259.292 42.3565 255.194 44.3398 252.325 46.9371L252.323 46.9366Z" fill="white"/>
<path d="M279.45 57.8042C276.405 58.7838 273.594 60.6805 270.786 62.1823C266.549 64.4471 262.272 66.6321 257.985 68.8003C250.767 72.4538 242.526 74.731 235.99 79.5881C235.782 79.7425 236.024 80.0489 236.24 79.9447C243.581 76.4073 251.172 73.3436 258.44 69.6678C265.537 66.0789 273.219 62.8804 279.559 58.0132C279.653 57.9402 279.564 57.7691 279.449 57.8057L279.45 57.8042Z" fill="white"/>
<path d="M232.82 27.6314C232.965 27.6241 233.058 27.4222 232.911 27.3384C230.782 26.1285 226.765 25.7593 224.601 27.0335C224.518 27.0834 224.544 27.2133 224.644 27.2198C225.927 27.2821 227.213 27.1292 228.502 27.1899C229.954 27.2588 231.362 27.7045 232.82 27.6314Z" fill="white"/>
<path d="M233.827 28.0544C234.151 28.1687 234.501 28.1972 234.834 28.2863C235.156 28.3717 235.322 28.3511 235.641 28.327C235.788 28.3166 235.839 28.1543 235.724 28.0625C235.419 27.8174 235.264 27.7164 234.864 27.631C234.526 27.5584 234.186 27.4953 233.844 27.5587C233.582 27.6071 233.595 27.9738 233.825 28.0555L233.827 28.0544Z" fill="white"/>
<path d="M254.653 36.9485C256.522 38.1236 258.142 39.7073 260.122 40.6911C260.256 40.7577 260.402 40.6085 260.297 40.4851C257.826 37.584 253.377 34.5042 249.504 34.1207C249.431 34.1127 249.394 34.2249 249.461 34.2605C251.197 35.1748 252.983 35.8999 254.653 36.9485Z" fill="white"/>
<path d="M255.893 42.4373C256.028 42.491 256.117 42.3324 256.072 42.2227C255.704 41.3048 254.818 40.7679 254.026 40.229C253.071 39.5764 251.975 38.8538 250.837 38.5846C250.757 38.5662 250.695 38.6556 250.752 38.7212C251.446 39.5263 252.428 40.029 253.288 40.6337C254.143 41.2335 254.917 42.0535 255.893 42.4373Z" fill="white"/>
<path d="M235.624 51.1697C235.771 51.1823 235.826 51.0035 235.747 50.9045C234.993 49.9587 233.714 49.5548 232.623 49.0925C231.351 48.552 229.973 48.035 228.58 48.0142C228.467 48.012 228.4 48.1776 228.511 48.2367C229.571 48.8066 230.737 49.1455 231.845 49.6164C233.061 50.1325 234.285 51.0503 235.623 51.1693L235.624 51.1697Z" fill="white"/>
<path d="M233.117 35.3522C230.525 33.6977 226.123 32.7897 223.056 33.124C222.949 33.1351 222.953 33.2998 223.049 33.3278C224.805 33.8345 226.633 34.0848 228.403 34.5544C229.935 34.9613 231.43 35.5861 233.025 35.6433C233.181 35.6492 233.248 35.4343 233.116 35.3502L233.117 35.3522Z" fill="white"/>
<path d="M224.231 30.4534C224.125 30.4878 224.138 30.6355 224.251 30.6492C227.211 30.9722 229.887 31.949 232.78 32.4983C232.921 32.526 233.008 32.3585 232.888 32.2682C230.689 30.6111 226.912 29.5944 224.232 30.4554L224.231 30.4534Z" fill="white"/>
<path d="M244.261 51.7396C243.474 51.1266 242.706 50.666 241.723 50.4565C241.63 50.4359 241.577 50.5479 241.653 50.6062C242.458 51.217 243.212 51.9039 243.978 52.5617C244.473 52.9847 244.923 53.5326 245.614 53.4167C245.698 53.4031 245.742 53.3131 245.727 53.2343C245.594 52.5234 244.794 52.155 244.259 51.7392L244.261 51.7396Z" fill="white"/>
<path d="M247.673 50.5848C246.745 49.4427 245.292 48.2556 243.751 48.1938C243.661 48.1906 243.606 48.3037 243.669 48.3712C244.688 49.4458 246.198 50.2037 247.533 50.8066C247.666 50.8663 247.751 50.6784 247.675 50.5853L247.673 50.5848Z" fill="white"/>
<path d="M253.613 67.4893C252.943 66.057 251.543 65.0316 250.37 64.0177C249.32 63.1095 248.161 62.1875 246.806 61.8045C246.691 61.7719 246.575 61.9235 246.672 62.0132C247.789 63.0376 249.027 63.9218 250.152 64.9405C251.198 65.8886 252.087 67.0828 253.373 67.7081C253.519 67.7799 253.686 67.6522 253.611 67.4904L253.613 67.4893Z" fill="white"/>
<path d="M250.217 66.867C250.308 66.8493 250.346 66.7605 250.336 66.6765C250.273 66.1574 249.62 65.835 249.241 65.5486C248.734 65.1626 248.216 64.8446 247.627 64.5981C247.503 64.5462 247.416 64.7172 247.494 64.8073C247.912 65.2955 248.36 65.7355 248.858 66.1445C249.233 66.4529 249.686 66.9719 250.215 66.8665L250.217 66.867Z" fill="white"/>
<path d="M213.54 56.2226C215.377 56.5385 217.201 56.8501 219.01 57.3105C220.694 57.7384 222.305 58.1801 224.048 58.0065C224.188 57.9923 224.18 57.7788 224.057 57.7439C220.925 56.8178 216.83 55.4647 213.547 56.0482C213.461 56.0628 213.449 56.2074 213.54 56.2241L213.54 56.2226Z" fill="white"/>
<path d="M221.129 54.5581C221.829 54.9827 222.594 55.2427 223.364 55.516C224.25 55.8284 225.121 56.3244 226.071 56.3373C226.226 56.3393 226.341 56.1379 226.218 56.0203C225.583 55.4182 224.764 55.2305 223.945 54.965C223.047 54.6733 222.145 54.392 221.199 54.3342C221.08 54.327 221.028 54.4953 221.129 54.5566L221.129 54.5581Z" fill="white"/>
<path d="M227.148 53.1379C227.964 53.4353 228.759 53.7903 229.637 53.6752C229.746 53.6611 229.794 53.4999 229.715 53.4257C229.073 52.8298 228.219 52.6063 227.395 52.3475C226.428 52.0426 225.521 51.7201 224.499 51.8679C224.43 51.8777 224.424 51.9714 224.476 52.0058C225.294 52.5595 226.227 52.8028 227.148 53.1379Z" fill="white"/>
<path d="M254.527 64.1665C254.631 64.2123 254.75 64.091 254.72 63.9875C254.498 63.2356 253.888 62.7634 253.311 62.2668C252.64 61.6883 251.956 61.2719 251.127 60.9673C251.025 60.9304 250.923 61.0768 251.009 61.1513C251.609 61.6749 252.216 62.1924 252.81 62.7206C253.377 63.2224 253.822 63.8511 254.526 64.1646L254.527 64.1665Z" fill="white"/>
<path d="M261.415 64.4568C261.516 64.4618 261.6 64.3611 261.575 64.2625C261.458 63.8023 261.089 63.552 260.749 63.2514C260.312 62.866 259.897 62.5106 259.4 62.2006C259.302 62.1388 259.188 62.2466 259.238 62.3481C259.498 62.8793 259.826 63.2932 260.242 63.7133C260.579 64.0543 260.909 64.4293 261.416 64.4553L261.415 64.4568Z" fill="white"/>
<path d="M263.383 62.34C263.664 62.6303 263.904 62.8915 264.331 62.7921C264.386 62.7796 264.441 62.7243 264.437 62.6636C264.411 62.2613 264.205 62.1164 263.915 61.8577C263.517 61.5044 263.14 61.1493 262.719 60.8219C262.579 60.7121 262.441 60.8985 262.491 61.0294C262.693 61.5508 262.997 61.9407 263.383 62.34Z" fill="white"/>
<path d="M266.961 58.3231C267.284 58.7684 267.641 59.1533 268.031 59.5391C268.185 59.6909 268.636 60.3922 268.935 60.1195C269.515 59.5929 267.377 58.3951 267.067 58.196C266.983 58.1434 266.907 58.2499 266.961 58.3231Z" fill="white"/>
<path d="M273.417 57.7C273.53 57.7635 273.652 57.6746 273.634 57.5469C273.5 56.6344 272.737 55.8655 272.191 55.1592C271.56 54.3439 270.907 53.6556 270 53.1598C269.885 53.0958 269.774 53.2294 269.854 53.3319C270.457 54.1004 271.077 54.8546 271.672 55.6323C272.208 56.3319 272.623 57.2643 273.417 57.7Z" fill="white"/>
<path d="M272.575 51.529C273.967 53.0648 275.161 54.8734 276.769 56.1865C276.85 56.2512 276.987 56.1539 276.953 56.0575C276.313 54.2501 274.908 52.8933 273.634 51.5C272.293 50.0363 270.948 48.3551 269.293 47.2436C269.241 47.2092 269.182 47.2701 269.207 47.3224C269.978 48.938 271.383 50.2157 272.575 51.529Z" fill="white"/>
<path d="M213.831 60.0333C213.731 60.0532 213.759 60.184 213.846 60.1978C215.272 60.4136 216.7 60.6513 218.094 61.0216C219.219 61.3215 220.27 61.8736 221.434 61.9795C221.591 61.9939 221.661 61.7964 221.569 61.6886C219.946 59.7888 216.108 59.5829 213.832 60.0338L213.831 60.0333Z" fill="white"/>
<path d="M221.264 66.2702C221.397 66.29 221.416 66.1129 221.334 66.0477C219.304 64.4122 215.729 63.7685 213.196 64.2333C213.12 64.2473 213.108 64.3789 213.191 64.3948C214.531 64.6431 215.874 64.8362 217.196 65.176C218.563 65.5264 219.866 66.0632 221.264 66.2717L221.264 66.2702Z" fill="white"/>
<path d="M217.108 71.9781C217.875 72.1943 218.707 72.459 219.489 72.2113C219.655 72.1593 219.724 71.9284 219.556 71.8266C218.893 71.4237 218.091 71.383 217.344 71.2207C216.468 71.0301 215.619 70.704 214.731 70.5903C214.461 70.5557 214.327 70.9805 214.57 71.1057C215.362 71.5161 216.252 71.7358 217.108 71.9766L217.108 71.9781Z" fill="white"/>
<path d="M215.583 75.6234C215.49 75.6307 215.464 75.7512 215.556 75.7863C217.364 76.4757 219.19 76.9974 220.948 77.8247C222.545 78.5749 223.972 79.7292 225.672 80.228C225.848 80.2798 225.978 80.0697 225.859 79.9321C223.761 77.4918 218.799 75.3799 215.585 75.6239L215.583 75.6234Z" fill="white"/>
<path d="M231.797 76.773C231.246 76.4924 230.724 76.2357 230.1 76.1925C229.963 76.1827 229.906 76.3496 229.983 76.4462C230.394 76.9521 230.909 77.319 231.473 77.6431C231.885 77.8806 232.281 78.0949 232.698 77.7632C232.749 77.7214 232.771 77.6424 232.755 77.5814C232.636 77.0843 232.212 76.985 231.797 76.773Z" fill="white"/>
<path d="M243.729 70.5337C243.95 70.7987 244.341 71.2771 244.732 71.0724C245.38 70.7337 243.625 69.3866 243.28 69.3136C243.195 69.2953 243.091 69.3451 243.094 69.4466C243.103 69.8667 243.475 70.2284 243.729 70.5337Z" fill="white"/>
<path d="M238.267 73.3431C238.165 73.3491 238.063 73.4855 238.162 73.5707C238.438 73.8068 238.726 74.0303 239.002 74.2649C239.241 74.4679 239.358 74.62 239.694 74.5696C239.745 74.5627 239.788 74.515 239.805 74.4674C240.066 73.6881 238.831 73.3078 238.269 73.3436L238.267 73.3431Z" fill="white"/>
<path d="M218.972 81.6226C217.974 81.1894 216.976 80.8368 215.913 80.604C215.8 80.5788 215.718 80.7263 215.824 80.7939C216.73 81.3718 217.654 81.9056 218.62 82.3753C219.421 82.7635 220.209 83.2964 221.123 83.1742C221.264 83.1555 221.284 82.9804 221.213 82.8872C220.671 82.1822 219.763 81.9668 218.972 81.6226Z" fill="white"/>
<path d="M215.975 84.6436C215.227 84.3344 214.425 84.0463 213.606 84.0776C213.459 84.0829 213.409 84.2537 213.523 84.3421C214.153 84.8288 214.898 85.0827 215.613 85.4193C216.225 85.7077 216.889 86.1554 217.574 86.0525C217.74 86.0268 217.856 85.7926 217.759 85.6501C217.36 85.0623 216.615 84.909 215.975 84.6451L215.975 84.6436Z" fill="white"/>
<path d="M212.288 88.7653C211.401 88.411 210.453 88.1003 209.495 88.0457C209.359 88.0379 209.304 88.2251 209.417 88.2966C210.147 88.7585 210.95 89.0949 211.733 89.4561C212.346 89.7395 213.124 90.3403 213.784 89.977C213.845 89.9434 213.883 89.8695 213.865 89.7997C213.684 89.1216 212.881 89.0012 212.29 88.7642L212.288 88.7653Z" fill="white"/>
<path d="M208.43 91.074C207.826 90.8741 207.274 90.7051 206.634 90.705C206.496 90.7047 206.447 90.8759 206.556 90.956C207.04 91.3081 207.535 91.5763 208.077 91.8327C208.536 92.0503 208.949 92.2698 209.433 92.0085C209.515 91.9646 209.543 91.8665 209.504 91.7831C209.287 91.3312 208.882 91.2231 208.43 91.074Z" fill="white"/>
<path d="M207.997 93.78C207.623 93.5478 207.199 93.3449 206.756 93.462C206.65 93.4899 206.625 93.6044 206.685 93.6874C206.935 94.0291 207.293 94.296 207.703 94.4105C208.079 94.5163 208.343 93.9918 207.997 93.7785L207.997 93.78Z" fill="white"/>
<path d="M249.569 46.442C249.834 46.0285 249.178 45.6589 248.92 45.4762C248.4 45.1094 247.814 44.7881 247.16 44.8382C247.062 44.8455 246.969 44.9698 247.06 45.0527C247.507 45.4543 248.012 45.7766 248.503 46.1275C248.718 46.2822 249.306 46.8513 249.57 46.4424L249.569 46.442Z" fill="white"/>
<path d="M230.441 51.0139C230.031 50.8959 229.588 50.8089 229.17 50.9225C229.087 50.9445 229.057 51.0437 229.112 51.1089C229.397 51.4469 229.805 51.6038 230.209 51.7562C230.655 51.9249 231.134 52.1172 231.607 52.1643C231.972 52.2005 232.143 51.652 231.823 51.4745C231.398 51.2398 230.904 51.1468 230.441 51.0154L230.441 51.0139Z" fill="white"/>
<path d="M210.891 64.1655C210.791 64.2481 210.824 64.3953 210.916 64.4652C211.179 64.6643 211.546 64.688 211.866 64.6988C212.247 64.7123 212.623 64.7832 212.864 64.4265C212.901 64.372 212.904 64.2953 212.873 64.2361C212.564 63.6616 211.332 63.8035 210.893 64.166L210.891 64.1655Z" fill="white"/>
<path d="M257.269 63.6401C257.693 64.3429 258.199 65.2691 259.005 65.5403C259.081 65.5657 259.174 65.5041 259.172 65.4225C259.154 64.5232 258.248 63.8283 257.518 63.4127C257.375 63.3318 257.173 63.4816 257.269 63.6401Z" fill="white"/>
<path d="M229.677 39.3383C230.091 39.4228 230.415 39.6063 230.842 39.5069C230.943 39.484 230.979 39.3783 230.941 39.2889C230.599 38.4879 229.376 38.4907 228.686 38.7535C228.553 38.8044 228.6 38.9907 228.711 39.0319C229.034 39.1541 229.336 39.2682 229.676 39.3363L229.677 39.3383Z" fill="white"/>
<path d="M231.009 44.1563C231.182 43.6018 229.507 43.5297 229.21 43.5589C229.05 43.5749 228.969 43.8284 229.093 43.9331C229.425 44.2129 230.784 44.8761 231.009 44.1563Z" fill="white"/>
<path d="M233.149 30.44C233.007 30.4602 232.943 30.6675 233.048 30.7646C233.362 31.0572 233.741 31.1589 234.135 31.3116C234.528 31.4623 234.874 31.585 235.297 31.6032C235.4 31.6087 235.489 31.4865 235.429 31.3921C235.006 30.7226 233.921 30.3279 233.149 30.44Z" fill="white"/>
<path d="M247.643 68.9414C247.226 68.6184 246.865 68.2718 246.382 68.0502C246.235 67.9828 246.114 68.1744 246.176 68.2976C246.419 68.7789 246.789 69.1237 247.195 69.4728C247.563 69.7888 247.915 70.1838 248.42 69.9903C248.484 69.9671 248.503 69.8891 248.493 69.83C248.42 69.3684 247.985 69.2066 247.643 68.9414Z" fill="white"/>
<path d="M227.568 78.503C227.219 78.2325 226.799 77.8921 226.329 77.9615C226.282 77.9683 226.246 78.0263 226.261 78.0703C226.393 78.491 226.804 78.7543 227.122 79.03C227.417 79.2852 227.716 79.6752 228.147 79.5936C228.217 79.5808 228.255 79.5169 228.263 79.452C228.321 79.0147 227.869 78.7387 227.566 78.5041L227.568 78.503Z" fill="white"/>
<path d="M92.3343 206C92.847 206 93.1675 206.107 93.2956 206.321C93.4559 206.5 93.536 206.875 93.536 207.446V209.107H88.1045C87.6238 209.107 87.2232 209.143 86.9028 209.214C86.6144 209.286 86.3901 209.429 86.2299 209.643C86.0696 209.857 85.9575 210.161 85.8934 210.554C85.8613 210.947 85.8453 211.482 85.8453 212.161V216.286H90.5558C91.0686 216.286 91.389 216.393 91.5172 216.608C91.6774 216.786 91.7575 217.161 91.7575 217.733V219.393H85.8453V242.055C85.8453 242.627 85.7492 243.019 85.5569 243.234C85.3967 243.412 85.0602 243.502 84.5475 243.502H82V211.09C82 209.232 82.3365 207.929 83.0094 207.179C83.7144 206.393 84.9 206 86.5663 206H92.3343Z" fill="#C08D16"/>
<path d="M99.4084 206L103.975 218.001L104.888 221.965H105.176L106.042 218.001L110.608 206H112.675C113.187 206 113.508 206.107 113.636 206.321C113.796 206.5 113.876 206.875 113.876 207.446L107.195 224.858L113.828 242.055C113.828 242.627 113.748 243.019 113.588 243.234C113.46 243.412 113.139 243.502 112.627 243.502H110.56L106.138 231.501L105.128 227.805H104.84L103.879 231.501L99.4564 243.502H97.3896C96.8768 243.502 96.5404 243.412 96.3802 243.234C96.252 243.019 96.1879 242.627 96.1879 242.055L102.821 224.858L96.1398 207.446C96.1398 206.875 96.2039 206.5 96.3321 206.321C96.4923 206.107 96.8288 206 97.3415 206H99.4084Z" fill="#C08D16"/>
</svg>
