<svg width="267" height="401" viewBox="0 0 267 401" fill="none" xmlns="http://www.w3.org/2000/svg">
<path d="M89.8499 0.850006C54.9099 0.850006 26.5898 29.17 26.5898 64.11C26.5898 99.05 54.9099 127.37 89.8499 127.37C124.79 127.37 153.11 99.05 153.11 64.11C153.11 29.17 124.79 0.850006 89.8499 0.850006ZM89.8499 102.53C68.6299 102.53 51.4298 85.33 51.4298 64.11C51.4298 42.89 68.6299 25.69 89.8499 25.69C111.07 25.69 128.27 42.89 128.27 64.11C128.27 85.33 111.07 102.53 89.8499 102.53Z" fill="#FFC200"/>
<path d="M110.33 400.84C68.6899 400.84 29.5398 384.62 0.0898438 355.18L1.49985 353.77C61.5098 413.78 159.14 413.78 219.15 353.77C248.22 324.7 264.23 286.05 264.23 244.95C264.23 203.85 248.22 165.19 219.15 136.13L220.56 134.72C250.01 164.17 266.22 203.32 266.22 244.96C266.22 286.6 250 325.75 220.56 355.2C191.12 384.63 151.97 400.84 110.33 400.84Z" fill="white"/>
<path d="M110.33 390.05C73.15 390.05 35.9799 375.9 7.67993 347.6L9.08994 346.19C64.9099 402.01 155.74 402.01 211.57 346.19C267.39 290.37 267.39 199.53 211.57 143.71L212.98 142.3C269.58 198.9 269.58 291 212.98 347.61C184.68 375.9 147.5 390.05 110.33 390.05Z" fill="white"/>
<path d="M110.33 379.39C74.4198 379.39 40.6598 365.4 15.2598 340.01L16.6698 338.6C41.6898 363.62 74.9498 377.39 110.32 377.39C145.7 377.39 178.96 363.61 203.97 338.6C228.99 313.58 242.76 280.32 242.76 244.95C242.76 209.57 228.98 176.31 203.97 151.3L205.38 149.89C230.77 175.28 244.76 209.05 244.76 244.96C244.76 280.87 230.77 314.63 205.38 340.03C180 365.4 146.24 379.39 110.33 379.39Z" fill="white"/>
<path d="M110.33 368.6C78.6499 368.6 46.9699 356.54 22.8499 332.42L24.2599 331.01C71.7199 378.47 148.94 378.47 196.4 331.01C243.86 283.55 243.86 206.33 196.4 158.87L197.81 157.46C246.05 205.7 246.05 284.19 197.81 332.42C173.69 356.54 142.01 368.6 110.33 368.6Z" fill="white"/>
<path d="M110.33 357.88C81.4 357.88 52.4599 346.87 30.4299 324.84L31.8399 323.43C75.1199 366.71 145.53 366.71 188.8 323.43C232.08 280.15 232.08 209.74 188.8 166.47L190.21 165.06C234.26 209.11 234.26 280.8 190.21 324.85C168.2 346.87 139.26 357.88 110.33 357.88Z" fill="white"/>
<path d="M110.33 347.16C84.1398 347.16 57.9498 337.19 38.0198 317.26L39.4298 315.85C78.5198 354.94 142.13 354.94 181.22 315.85C200.16 296.91 210.59 271.73 210.59 244.95C210.59 218.17 200.16 192.99 181.22 174.05L182.63 172.64C201.95 191.95 212.58 217.64 212.58 244.95C212.58 272.26 201.94 297.95 182.63 317.26C162.7 337.19 136.52 347.16 110.33 347.16Z" fill="white"/>
<path d="M110.33 336.44C86.8899 336.44 63.4499 327.52 45.5999 309.67L47.0099 308.26C81.9199 343.17 138.72 343.17 173.63 308.26C208.54 273.35 208.54 216.55 173.63 181.64L175.04 180.23C210.73 215.92 210.73 273.99 175.04 309.68C157.21 327.51 133.77 336.44 110.33 336.44Z" fill="white"/>
<path d="M172.53 127.55L166.76 133.31V127.55H172.53Z" fill="white"/>
<path d="M183.21 127.55L166.76 144V138.24L177.45 127.55H183.21Z" fill="white"/>
<path d="M215.19 127.55L166.76 175.97V170.3L209.51 127.55H215.19Z" fill="white"/>
<path d="M204.59 127.55L166.76 165.37V159.61L198.83 127.55H204.59Z" fill="white"/>
<path d="M193.9 127.55L166.76 154.69V148.92L188.14 127.55H193.9Z" fill="white"/>
</svg>
