<svg width="718" height="508" viewBox="0 0 718 508" fill="none" xmlns="http://www.w3.org/2000/svg">
<g clip-path="url(#clip0_1_3)" filter="url(#filter0_d_1_3)">
<path d="M500.78 499.41C500.94 470.32 524.66 446.87 553.75 447.03C582.84 447.19 606.29 470.91 606.13 500" stroke="#070707" stroke-width="2" stroke-miterlimit="10"/>
<path d="M592.67 499.92C592.79 478.26 575.33 460.61 553.68 460.49C532.02 460.37 514.37 477.83 514.25 499.48L592.67 499.92Z" fill="#A9FFCB"/>
<path d="M306.42 250L339 268.81L371.58 250V212.38L339 193.57L306.42 212.38V250Z" fill="#C08D16"/>
<path d="M306.42 287.62L339 306.43L371.58 287.62V250L339 231.19L306.42 250V287.62Z" stroke="#070707" stroke-width="2" stroke-miterlimit="10"/>
<path d="M196.54 109L155.53 37.96H237.55L196.54 109Z" fill="#A9FFCB"/>
<path d="M-16 43L-2.17 59.34L11.66 43L25.49 59.34L39.32 43L53.16 59.34L67 43" stroke="#070707" stroke-width="4" stroke-miterlimit="10"/>
<path d="M-16 21L-2.17 37.34L11.66 21L25.49 37.34L39.32 21L53.16 37.34L67 21" stroke="#070707" stroke-width="4" stroke-miterlimit="10"/>
<path d="M422.5 177V164M429 170.5H416H429Z" stroke="#A9FFCB" stroke-miterlimit="10"/>
<path d="M422.5 145V132M429 138.5H416H429Z" stroke="#A9FFCB" stroke-miterlimit="10"/>
<path d="M422.5 114V101M429 107.5H416H429Z" stroke="#A9FFCB" stroke-miterlimit="10"/>
<path d="M422.5 177V164M429 170.5H416H429Z" stroke="#070707" stroke-width="2" stroke-miterlimit="10"/>
<path d="M422.5 145V132M429 138.5H416H429Z" stroke="#070707" stroke-width="2" stroke-miterlimit="10"/>
<path d="M422.5 114V101M429 107.5H416H429Z" stroke="#070707" stroke-width="2" stroke-miterlimit="10"/>
<path d="M452.5 177V164M459 170.5H446H459Z" stroke="#A9FFCB" stroke-miterlimit="10"/>
<path d="M452.5 145V132M459 138.5H446H459Z" stroke="#A9FFCB" stroke-miterlimit="10"/>
<path d="M452.5 114V101M459 107.5H446H459Z" stroke="#A9FFCB" stroke-miterlimit="10"/>
<path d="M452.5 177V164M459 170.5H446H459Z" stroke="#070707" stroke-width="2" stroke-miterlimit="10"/>
<path d="M452.5 145V132M459 138.5H446H459Z" stroke="#070707" stroke-width="2" stroke-miterlimit="10"/>
<path d="M452.5 114V101M459 107.5H446H459Z" stroke="#070707" stroke-width="2" stroke-miterlimit="10"/>
<path d="M482.5 145V132M489 138.5H476H489Z" stroke="#A9FFCB" stroke-miterlimit="10"/>
<path d="M482.5 114V101M489 107.5H476H489Z" stroke="#A9FFCB" stroke-miterlimit="10"/>
<path d="M482.5 145V132M489 138.5H476H489Z" stroke="#070707" stroke-width="2" stroke-miterlimit="10"/>
<path d="M482.5 114V101M489 107.5H476H489Z" stroke="#070707" stroke-width="2" stroke-miterlimit="10"/>
<path d="M512.5 145V132M519 138.5H506H519Z" stroke="#A9FFCB" stroke-miterlimit="10"/>
<path d="M512.5 114V101M519 107.5H506H519Z" stroke="#A9FFCB" stroke-miterlimit="10"/>
<path d="M512.5 145V132M519 138.5H506H519Z" stroke="#070707" stroke-width="2" stroke-miterlimit="10"/>
<path d="M512.5 114V101M519 107.5H506H519Z" stroke="#070707" stroke-width="2" stroke-miterlimit="10"/>
<path d="M542.5 145V132M549 138.5H536H549Z" stroke="#A9FFCB" stroke-miterlimit="10"/>
<path d="M542.5 114V101M549 107.5H536H549Z" stroke="#A9FFCB" stroke-miterlimit="10"/>
<path d="M542.5 145V132M549 138.5H536H549Z" stroke="#070707" stroke-width="2" stroke-miterlimit="10"/>
<path d="M542.5 114V101M549 107.5H536H549Z" stroke="#070707" stroke-width="2" stroke-miterlimit="10"/>
<path d="M40.76 423.23H-16V479.99H40.76V423.23Z" stroke="#070707" stroke-width="2" stroke-miterlimit="10"/>
<path d="M69.14 394.85H12.38V451.61H69.14V394.85Z" fill="#C08D16"/>
<path d="M238.62 362.03C236.4 362.03 234.59 360.23 234.59 358C234.59 355.77 236.39 353.97 238.62 353.97C240.84 353.97 242.65 355.77 242.65 358C242.65 360.23 240.85 362.03 238.62 362.03Z" fill="#C08D16"/>
<path d="M238.62 383.63C236.4 383.63 234.59 381.83 234.59 379.6C234.59 377.38 236.39 375.57 238.62 375.57C240.84 375.57 242.65 377.37 242.65 379.6C242.65 381.82 240.85 383.63 238.62 383.63Z" fill="#C08D16"/>
<path d="M238.62 405.23C236.4 405.23 234.59 403.43 234.59 401.2C234.59 398.97 236.39 397.17 238.62 397.17C240.84 397.17 242.65 398.97 242.65 401.2C242.65 403.43 240.85 405.23 238.62 405.23Z" fill="#C08D16"/>
<path d="M238.62 426.82C236.4 426.82 234.59 425.02 234.59 422.79C234.59 420.56 236.39 418.76 238.62 418.76C240.84 418.76 242.65 420.56 242.65 422.79C242.65 425.02 240.85 426.82 238.62 426.82Z" fill="#070707"/>
<path d="M238.62 448.42C236.4 448.42 234.59 446.62 234.59 444.39C234.59 442.17 236.39 440.36 238.62 440.36C240.84 440.36 242.65 442.16 242.65 444.39C242.65 446.62 240.85 448.42 238.62 448.42Z" fill="#C08D16"/>
<path d="M238.62 470.02C236.4 470.02 234.59 468.22 234.59 465.99C234.59 463.76 236.39 461.96 238.62 461.96C240.84 461.96 242.65 463.76 242.65 465.99C242.65 468.22 240.85 470.02 238.62 470.02Z" fill="#C08D16"/>
<path d="M238.62 491.62C236.4 491.62 234.59 489.82 234.59 487.59C234.59 485.36 236.39 483.56 238.62 483.56C240.84 483.56 242.65 485.36 242.65 487.59C242.65 489.82 240.85 491.62 238.62 491.62Z" fill="#070707"/>
<path d="M221.94 362.03C224.166 362.03 225.97 360.226 225.97 358C225.97 355.774 224.166 353.97 221.94 353.97C219.714 353.97 217.91 355.774 217.91 358C217.91 360.226 219.714 362.03 221.94 362.03Z" fill="#C08D16"/>
<path d="M221.94 383.63C219.72 383.63 217.91 381.83 217.91 379.6C217.91 377.38 219.71 375.57 221.94 375.57C224.16 375.57 225.97 377.37 225.97 379.6C225.97 381.82 224.16 383.63 221.94 383.63Z" stroke="#C08D16" stroke-miterlimit="10"/>
<path d="M221.94 405.23C224.166 405.23 225.97 403.426 225.97 401.2C225.97 398.974 224.166 397.17 221.94 397.17C219.714 397.17 217.91 398.974 217.91 401.2C217.91 403.426 219.714 405.23 221.94 405.23Z" fill="#C08D16"/>
<path d="M221.94 426.83C224.166 426.83 225.97 425.026 225.97 422.8C225.97 420.574 224.166 418.77 221.94 418.77C219.714 418.77 217.91 420.574 217.91 422.8C217.91 425.026 219.714 426.83 221.94 426.83Z" fill="#C08D16"/>
<path d="M221.94 448.42C219.72 448.42 217.91 446.62 217.91 444.39C217.91 442.17 219.71 440.36 221.94 440.36C224.16 440.36 225.97 442.16 225.97 444.39C225.97 446.62 224.16 448.42 221.94 448.42Z" fill="#C08D16"/>
<path d="M221.94 470.03C224.166 470.03 225.97 468.226 225.97 466C225.97 463.774 224.166 461.97 221.94 461.97C219.714 461.97 217.91 463.774 217.91 466C217.91 468.226 219.714 470.03 221.94 470.03Z" stroke="#C08D16" stroke-miterlimit="10"/>
<path d="M221.94 491.63C224.166 491.63 225.97 489.826 225.97 487.6C225.97 485.374 224.166 483.57 221.94 483.57C219.714 483.57 217.91 485.374 217.91 487.6C217.91 489.826 219.714 491.63 221.94 491.63Z" fill="#C08D16"/>
<path d="M205.25 362.03C207.476 362.03 209.28 360.226 209.28 358C209.28 355.774 207.476 353.97 205.25 353.97C203.025 353.97 201.22 355.774 201.22 358C201.22 360.226 203.025 362.03 205.25 362.03Z" fill="#C08D16"/>
<path d="M205.25 383.63C203.03 383.63 201.22 381.83 201.22 379.6C201.22 377.38 203.02 375.57 205.25 375.57C207.48 375.57 209.28 377.37 209.28 379.6C209.28 381.82 207.48 383.63 205.25 383.63Z" fill="#C08D16"/>
<path d="M205.25 405.23C207.476 405.23 209.28 403.426 209.28 401.2C209.28 398.974 207.476 397.17 205.25 397.17C203.025 397.17 201.22 398.974 201.22 401.2C201.22 403.426 203.025 405.23 205.25 405.23Z" fill="#C08D16"/>
<path d="M205.25 426.83C207.476 426.83 209.28 425.026 209.28 422.8C209.28 420.574 207.476 418.77 205.25 418.77C203.025 418.77 201.22 420.574 201.22 422.8C201.22 425.026 203.025 426.83 205.25 426.83Z" fill="#C08D16"/>
<path d="M205.25 448.42C203.03 448.42 201.22 446.62 201.22 444.39C201.22 442.17 203.02 440.36 205.25 440.36C207.48 440.36 209.28 442.16 209.28 444.39C209.28 446.62 207.48 448.42 205.25 448.42Z" fill="#070707"/>
<path d="M205.25 470.03C207.476 470.03 209.28 468.226 209.28 466C209.28 463.774 207.476 461.97 205.25 461.97C203.025 461.97 201.22 463.774 201.22 466C201.22 468.226 203.025 470.03 205.25 470.03Z" fill="#C08D16"/>
<path d="M205.25 491.63C207.476 491.63 209.28 489.826 209.28 487.6C209.28 485.374 207.476 483.57 205.25 483.57C203.025 483.57 201.22 485.374 201.22 487.6C201.22 489.826 203.025 491.63 205.25 491.63Z" fill="#C08D16"/>
<path d="M188.56 362.03C190.786 362.03 192.59 360.226 192.59 358C192.59 355.774 190.786 353.97 188.56 353.97C186.334 353.97 184.53 355.774 184.53 358C184.53 360.226 186.334 362.03 188.56 362.03Z" fill="#C08D16"/>
<path d="M188.56 383.63C186.34 383.63 184.53 381.83 184.53 379.6C184.53 377.38 186.33 375.57 188.56 375.57C190.79 375.57 192.59 377.37 192.59 379.6C192.59 381.82 190.79 383.63 188.56 383.63Z" fill="#070707"/>
<path d="M188.56 405.23C190.786 405.23 192.59 403.426 192.59 401.2C192.59 398.974 190.786 397.17 188.56 397.17C186.334 397.17 184.53 398.974 184.53 401.2C184.53 403.426 186.334 405.23 188.56 405.23Z" fill="#C08D16"/>
<path d="M188.56 426.83C190.786 426.83 192.59 425.026 192.59 422.8C192.59 420.574 190.786 418.77 188.56 418.77C186.334 418.77 184.53 420.574 184.53 422.8C184.53 425.026 186.334 426.83 188.56 426.83Z" stroke="#C08D16" stroke-miterlimit="10"/>
<path d="M188.56 448.42C186.34 448.42 184.53 446.62 184.53 444.39C184.53 442.17 186.33 440.36 188.56 440.36C190.79 440.36 192.59 442.16 192.59 444.39C192.59 446.62 190.79 448.42 188.56 448.42Z" fill="#C08D16"/>
<path d="M188.56 470.03C190.786 470.03 192.59 468.226 192.59 466C192.59 463.774 190.786 461.97 188.56 461.97C186.334 461.97 184.53 463.774 184.53 466C184.53 468.226 186.334 470.03 188.56 470.03Z" fill="#C08D16"/>
<path d="M188.56 491.63C190.786 491.63 192.59 489.826 192.59 487.6C192.59 485.374 190.786 483.57 188.56 483.57C186.334 483.57 184.53 485.374 184.53 487.6C184.53 489.826 186.334 491.63 188.56 491.63Z" fill="#C08D16"/>
<path d="M171.88 362.03C174.106 362.03 175.91 360.226 175.91 358C175.91 355.774 174.106 353.97 171.88 353.97C169.654 353.97 167.85 355.774 167.85 358C167.85 360.226 169.654 362.03 171.88 362.03Z" stroke="#C08D16" stroke-miterlimit="10"/>
<path d="M171.88 383.63C169.66 383.63 167.85 381.83 167.85 379.6C167.85 377.38 169.65 375.57 171.88 375.57C174.1 375.57 175.91 377.37 175.91 379.6C175.91 381.82 174.1 383.63 171.88 383.63Z" fill="#C08D16"/>
<path d="M171.88 405.23C174.106 405.23 175.91 403.426 175.91 401.2C175.91 398.974 174.106 397.17 171.88 397.17C169.654 397.17 167.85 398.974 167.85 401.2C167.85 403.426 169.654 405.23 171.88 405.23Z" fill="#C08D16"/>
<path d="M171.88 426.83C174.106 426.83 175.91 425.026 175.91 422.8C175.91 420.574 174.106 418.77 171.88 418.77C169.654 418.77 167.85 420.574 167.85 422.8C167.85 425.026 169.654 426.83 171.88 426.83Z" fill="#C08D16"/>
<path d="M171.88 448.42C169.66 448.42 167.85 446.62 167.85 444.39C167.85 442.17 169.65 440.36 171.88 440.36C174.1 440.36 175.91 442.16 175.91 444.39C175.91 446.62 174.1 448.42 171.88 448.42Z" fill="#C08D16"/>
<path d="M171.88 470.03C174.106 470.03 175.91 468.226 175.91 466C175.91 463.774 174.106 461.97 171.88 461.97C169.654 461.97 167.85 463.774 167.85 466C167.85 468.226 169.654 470.03 171.88 470.03Z" fill="#C08D16"/>
<path d="M171.88 491.63C174.106 491.63 175.91 489.826 175.91 487.6C175.91 485.374 174.106 483.57 171.88 483.57C169.654 483.57 167.85 485.374 167.85 487.6C167.85 489.826 169.654 491.63 171.88 491.63Z" fill="#C08D16"/>
<path d="M517.93 172.06C520.156 172.06 521.96 170.256 521.96 168.03C521.96 165.804 520.156 164 517.93 164C515.704 164 513.9 165.804 513.9 168.03C513.9 170.256 515.704 172.06 517.93 172.06Z" fill="#C08D16"/>
<path d="M543.55 168.03C543.55 170.25 541.75 172.06 539.52 172.06C537.3 172.06 535.49 170.26 535.49 168.03C535.49 165.81 537.29 164 539.52 164C541.75 164 543.55 165.8 543.55 168.03Z" fill="#C08D16"/>
<path d="M517.93 188.74C520.156 188.74 521.96 186.936 521.96 184.71C521.96 182.484 520.156 180.68 517.93 180.68C515.704 180.68 513.9 182.484 513.9 184.71C513.9 186.936 515.704 188.74 517.93 188.74Z" fill="#C08D16"/>
<path d="M543.55 184.71C543.55 186.93 541.75 188.74 539.52 188.74C537.3 188.74 535.49 186.94 535.49 184.71C535.49 182.48 537.29 180.68 539.52 180.68C541.75 180.69 543.55 182.49 543.55 184.71Z" stroke="#C08D16" stroke-miterlimit="10"/>
<path d="M517.93 205.43C520.156 205.43 521.96 203.626 521.96 201.4C521.96 199.174 520.156 197.37 517.93 197.37C515.704 197.37 513.9 199.174 513.9 201.4C513.9 203.626 515.704 205.43 517.93 205.43Z" fill="#070707"/>
<path d="M543.55 201.4C543.55 203.62 541.75 205.43 539.52 205.43C537.3 205.43 535.49 203.63 535.49 201.4C535.49 199.17 537.29 197.37 539.52 197.37C541.75 197.37 543.55 199.18 543.55 201.4Z" stroke="#C08D16" stroke-miterlimit="10"/>
<path d="M517.93 222.12C520.156 222.12 521.96 220.316 521.96 218.09C521.96 215.864 520.156 214.06 517.93 214.06C515.704 214.06 513.9 215.864 513.9 218.09C513.9 220.316 515.704 222.12 517.93 222.12Z" fill="#070707"/>
<path d="M543.55 218.09C543.55 220.31 541.75 222.12 539.52 222.12C537.3 222.12 535.49 220.32 535.49 218.09C535.49 215.87 537.29 214.06 539.52 214.06C541.75 214.06 543.55 215.86 543.55 218.09Z" stroke="#C08D16" stroke-miterlimit="10"/>
<path d="M521.95 234.78C521.95 237 520.15 238.81 517.92 238.81C515.7 238.81 513.89 237.01 513.89 234.78C513.89 232.56 515.69 230.75 517.92 230.75C520.15 230.75 521.95 232.55 521.95 234.78Z" fill="#070707"/>
<path d="M543.55 234.78C543.55 237 541.75 238.81 539.52 238.81C537.3 238.81 535.49 237.01 535.49 234.78C535.49 232.56 537.29 230.75 539.52 230.75C541.75 230.75 543.55 232.55 543.55 234.78Z" stroke="#C08D16" stroke-miterlimit="10"/>
<path d="M521.95 251.46C521.95 253.68 520.15 255.49 517.92 255.49C515.7 255.49 513.89 253.69 513.89 251.46C513.89 249.24 515.69 247.43 517.92 247.43C520.15 247.43 521.95 249.24 521.95 251.46Z" fill="#C08D16"/>
<path d="M543.55 251.46C543.55 253.68 541.75 255.49 539.52 255.49C537.3 255.49 535.49 253.69 535.49 251.46C535.49 249.24 537.29 247.43 539.52 247.43C541.75 247.43 543.55 249.24 543.55 251.46Z" stroke="#C08D16" stroke-miterlimit="10"/>
<path d="M521.95 268.15C521.95 270.37 520.15 272.18 517.92 272.18C515.7 272.18 513.89 270.38 513.89 268.15C513.89 265.93 515.69 264.12 517.92 264.12C520.15 264.12 521.95 265.92 521.95 268.15Z" fill="#C08D16"/>
<path d="M543.55 268.15C543.55 270.37 541.75 272.18 539.52 272.18C537.3 272.18 535.49 270.38 535.49 268.15C535.49 265.93 537.29 264.12 539.52 264.12C541.75 264.12 543.55 265.92 543.55 268.15Z" fill="#C08D16"/>
<path d="M328.12 322.73H322.79V344.56H328.12V322.73Z" fill="#070707"/>
<path d="M341.66 322.73H336.33V344.56H341.66V322.73Z" fill="#070707"/>
<path d="M355.2 322.73H349.87V344.56H355.2V322.73Z" fill="#070707"/>
<path d="M328.12 353.82H322.79V375.65H328.12V353.82Z" fill="#070707"/>
<path d="M341.66 353.82H336.33V375.65H341.66V353.82Z" fill="#070707"/>
<path d="M341.66 384.9H336.33V406.73H341.66V384.9Z" fill="#070707"/>
<path d="M355.2 384.9H349.87V406.73H355.2V384.9Z" fill="#070707"/>
<path d="M328.12 415.99H322.79V437.82H328.12V415.99Z" fill="#070707"/>
<path d="M355.2 415.99H349.87V437.82H355.2V415.99Z" fill="#070707"/>
<path d="M328.12 447.08H322.79V468.91H328.12V447.08Z" fill="#070707"/>
<path d="M341.66 447.08H336.33V468.91H341.66V447.08Z" fill="#070707"/>
<path d="M328.12 478.17H322.79V500H328.12V478.17Z" fill="#070707"/>
<path d="M341.66 478.17H336.33V500H341.66V478.17Z" fill="#070707"/>
<path d="M355.2 478.17H349.87V500H355.2V478.17Z" fill="#070707"/>
<path d="M349.878 177.27H355.208V155.44H349.878V177.27Z" fill="#070707"/>
<path d="M336.34 177.27H341.67V155.44H336.34V177.27Z" fill="#070707"/>
<path d="M322.802 177.27H328.132V155.44H322.802V177.27Z" fill="#070707"/>
<path d="M349.878 146.185H355.208V124.355H349.878V146.185Z" fill="#070707"/>
<path d="M336.34 146.185H341.67V124.355H336.34V146.185Z" fill="#070707"/>
<path d="M336.34 115.099H341.67V93.2693H336.34V115.099Z" fill="#070707"/>
<path d="M322.802 115.099H328.132V93.2693H322.802V115.099Z" fill="#070707"/>
<path d="M349.878 84.0037H355.208V62.1737H349.878V84.0037Z" fill="#070707"/>
<path d="M322.802 84.0037H328.132V62.1737H322.802V84.0037Z" fill="#070707"/>
<path d="M349.878 52.9183H355.208V31.0883H349.878V52.9183Z" fill="#070707"/>
<path d="M336.34 52.9183H341.67V31.0883H336.34V52.9183Z" fill="#070707"/>
<path d="M349.878 21.8327H355.208V0.00270271H349.878V21.8327Z" fill="#070707"/>
<path d="M336.34 21.8327H341.67V0.00270271H336.34V21.8327Z" fill="#070707"/>
<path d="M322.802 21.8327H328.132V0.00270271H322.802V21.8327Z" fill="#070707"/>
<path d="M714 342.67C662.82 342.67 621.33 301.18 621.33 250C621.33 198.82 662.82 157.33 714 157.33" fill="#C08D16"/>
<path d="M610.68 250C610.68 192.94 656.94 146.68 714 146.68" stroke="#070707" stroke-miterlimit="10"/>
<path d="M714 353.32C656.94 353.32 610.68 307.06 610.68 250" stroke="#070707" stroke-width="4" stroke-miterlimit="10"/>
<path d="M610.68 250C610.68 192.94 656.94 146.68 714 146.68" stroke="#070707" stroke-miterlimit="10"/>
<path d="M714 353.32C656.94 353.32 610.68 307.06 610.68 250" stroke="#070707" stroke-width="4" stroke-miterlimit="10"/>
<path d="M601.14 250C601.14 187.67 651.67 137.14 714 137.14" stroke="#070707" stroke-miterlimit="10"/>
<path d="M714 362.86C651.67 362.86 601.14 312.33 601.14 250" stroke="#070707" stroke-width="4" stroke-miterlimit="10"/>
<path d="M601.14 250C601.14 187.67 651.67 137.14 714 137.14" stroke="#070707" stroke-miterlimit="10"/>
<path d="M714 362.86C651.67 362.86 601.14 312.33 601.14 250" stroke="#070707" stroke-width="4" stroke-miterlimit="10"/>
<path d="M591.64 250C591.64 182.42 646.42 127.64 714 127.64" stroke="#070707" stroke-miterlimit="10"/>
<path d="M714 372.36C646.42 372.36 591.64 317.58 591.64 250" stroke="#070707" stroke-width="4" stroke-miterlimit="10"/>
<path d="M581.33 250C581.33 176.73 640.73 117.33 714 117.33" stroke="#070707" stroke-miterlimit="10"/>
<path d="M714 382.67C640.73 382.67 581.33 323.27 581.33 250" stroke="#070707" stroke-width="4" stroke-miterlimit="10"/>
<path d="M705 9.87H573.5V40.46H705V9.87Z" stroke="#070707" stroke-width="2" stroke-miterlimit="10"/>
<path d="M714 0H582.5V30.59H714V0Z" fill="#C08D16"/>
<path d="M535.974 297.3L528.726 290.052L521.478 297.3L528.726 304.547L535.974 297.3Z" fill="#070707"/>
<path d="M535.972 322.388L528.724 315.141L521.476 322.388L528.724 329.636L535.972 322.388Z" fill="#A9FFCB"/>
<path d="M535.969 347.477L528.722 340.229L521.474 347.477L528.722 354.725L535.969 347.477Z" fill="#A9FFCB"/>
<path d="M535.974 372.559L528.727 365.311L521.479 372.559L528.727 379.807L535.974 372.559Z" fill="#070707"/>
<path d="M-4.02997 132.57C17.94 137.56 34.33 157.21 34.33 180.68C34.33 206.06 15.17 226.96 -9.46997 229.71" stroke="#070707" stroke-width="3" stroke-miterlimit="10" stroke-linecap="round"/>
<path d="M-1.69995 118.06C27.2701 124.19 49.0001 149.9 49.0001 180.69C49.0001 213.78 23.8901 241.01 -8.31995 244.36" stroke="#070707" stroke-width="3" stroke-miterlimit="10" stroke-linecap="round"/>
<path d="M-5.97995 146.98C8.91005 150.96 19.8801 164.54 19.8801 180.69C19.8801 198.41 6.67005 213.05 -10.45 215.28" stroke="#070707" stroke-width="3" stroke-miterlimit="10" stroke-linecap="round"/>
<path d="M-7.98994 161.41C-0.119941 164.28 5.50006 171.82 5.50006 180.69C5.50006 190.8 -1.81994 199.2 -11.4399 200.89" stroke="#070707" stroke-width="3" stroke-miterlimit="10" stroke-linecap="round"/>
<path d="M96 125.66H119.22V148.88L96 125.66Z" fill="#C08D16"/>
<path d="M96 172.26H119.22V195.49L96 172.26Z" fill="#C08D16"/>
<path d="M96 149.03H119.22V172.26L96 149.03Z" fill="#070707"/>
<path d="M172.41 208.7L223.85 157.25" stroke="#070707" stroke-width="2" stroke-miterlimit="10"/>
<path d="M185.12 208.7L236.57 157.25" stroke="#070707" stroke-width="2" stroke-miterlimit="10"/>
<path d="M197.84 208.7L249.28 157.25" stroke="#A9FFCB" stroke-width="2" stroke-miterlimit="10"/>
<path d="M210.55 208.7L262 157.25" stroke="#C08D16" stroke-width="2" stroke-miterlimit="10"/>
<path d="M423.25 365.36V480.31" stroke="#A9FFCB" stroke-width="2" stroke-miterlimit="10"/>
<path d="M432.5 350.93V480.31" stroke="#C08D16" stroke-width="2" stroke-miterlimit="10"/>
<path d="M441.75 336.51V480.31" stroke="#070707" stroke-width="2" stroke-miterlimit="10"/>
<path d="M451 322.09V480.31" stroke="#070707" stroke-width="2" stroke-miterlimit="10"/>
<path d="M626.14 406.67C626.14 409.69 623.69 412.14 620.67 412.14C617.65 412.14 615.2 409.69 615.2 406.67C615.2 403.65 617.65 401.2 620.67 401.2C623.69 401.2 626.14 403.65 626.14 406.67Z" fill="#070707"/>
<path d="M643.13 423.66C643.13 426.68 640.68 429.13 637.66 429.13C634.64 429.13 632.19 426.68 632.19 423.66C632.19 420.64 634.64 418.19 637.66 418.19C640.68 418.19 643.13 420.64 643.13 423.66Z" fill="#070707"/>
<path d="M660.12 440.65C660.12 443.67 657.67 446.12 654.65 446.12C651.63 446.12 649.18 443.67 649.18 440.65C649.18 437.63 651.63 435.18 654.65 435.18C657.68 435.18 660.12 437.63 660.12 440.65Z" fill="#A9FFCB"/>
<path d="M677.12 457.65C677.12 460.67 674.67 463.12 671.65 463.12C668.63 463.12 666.18 460.67 666.18 457.65C666.18 454.63 668.63 452.18 671.65 452.18C674.67 452.18 677.12 454.62 677.12 457.65Z" fill="#C08D16"/>
<path d="M17.85 300H-36V336H17.85V300Z" fill="#A9FFCB"/>
<path d="M489 0H416V12H489V0Z" fill="#A9FFCB"/>
<path d="M489 30H416V42H489V30Z" fill="#A9FFCB"/>
<path d="M632.41 75.45L610.3 97.57" stroke="#070707" stroke-width="2" stroke-miterlimit="10"/>
<path d="M632.41 97.57L610.3 75.45" stroke="#070707" stroke-width="2" stroke-miterlimit="10"/>
<path d="M441.53 269.47C452.28 269.47 461 260.75 461 250C461 239.25 452.28 230.53 441.53 230.53V269.47Z" fill="#A9FFCB"/>
<path d="M107.61 269.12H95.48V281.25H107.61V269.12Z" stroke="#A9FFCB" stroke-width="2" stroke-miterlimit="10"/>
<path d="M130.05 269.12H117.92V281.25H130.05V269.12Z" stroke="#A9FFCB" stroke-width="2" stroke-miterlimit="10"/>
<path d="M152.48 269.12H140.35V281.25H152.48V269.12Z" stroke="#A9FFCB" stroke-width="2" stroke-miterlimit="10"/>
<path d="M174.92 269.12H162.79V281.25H174.92V269.12Z" stroke="#A9FFCB" stroke-width="2" stroke-miterlimit="10"/>
<path d="M197.35 269.12H185.22V281.25H197.35V269.12Z" stroke="#A9FFCB" stroke-width="2" stroke-miterlimit="10"/>
<path d="M219.78 269.12H207.65V281.25H219.78V269.12Z" stroke="#A9FFCB" stroke-width="2" stroke-miterlimit="10"/>
<path d="M242.22 269.12H230.09V281.25H242.22V269.12Z" stroke="#A9FFCB" stroke-width="2" stroke-miterlimit="10"/>
<path d="M107.61 288.91H95.48V301.04H107.61V288.91Z" stroke="#A9FFCB" stroke-width="2" stroke-miterlimit="10"/>
<path d="M130.05 288.91H117.92V301.04H130.05V288.91Z" stroke="#A9FFCB" stroke-width="2" stroke-miterlimit="10"/>
<path d="M152.48 288.91H140.35V301.04H152.48V288.91Z" stroke="#A9FFCB" stroke-width="2" stroke-miterlimit="10"/>
<path d="M174.92 288.91H162.79V301.04H174.92V288.91Z" stroke="#A9FFCB" stroke-width="2" stroke-miterlimit="10"/>
<path d="M197.35 288.91H185.22V301.04H197.35V288.91Z" stroke="#A9FFCB" stroke-width="2" stroke-miterlimit="10"/>
<path d="M219.78 288.91H207.65V301.04H219.78V288.91Z" stroke="#A9FFCB" stroke-width="2" stroke-miterlimit="10"/>
<path d="M242.22 288.91H230.09V301.04H242.22V288.91Z" stroke="#A9FFCB" stroke-width="2" stroke-miterlimit="10"/>
<path d="M95.48 259.12H107.61" stroke="#A9FFCB" stroke-width="2" stroke-miterlimit="10" stroke-linecap="square"/>
<path d="M117.92 259.12H130.04" stroke="#A9FFCB" stroke-width="2" stroke-miterlimit="10" stroke-linecap="square"/>
</g>
<defs>
<filter id="filter0_d_1_3" x="0" y="0" width="718" height="508" filterUnits="userSpaceOnUse" color-interpolation-filters="sRGB">
<feFlood flood-opacity="0" result="BackgroundImageFix"/>
<feColorMatrix in="SourceAlpha" type="matrix" values="0 0 0 0 0 0 0 0 0 0 0 0 0 0 0 0 0 0 127 0" result="hardAlpha"/>
<feOffset dy="4"/>
<feGaussianBlur stdDeviation="2"/>
<feComposite in2="hardAlpha" operator="out"/>
<feColorMatrix type="matrix" values="0 0 0 0 0 0 0 0 0 0 0 0 0 0 0 0 0 0 0.25 0"/>
<feBlend mode="normal" in2="BackgroundImageFix" result="effect1_dropShadow_1_3"/>
<feBlend mode="normal" in="SourceGraphic" in2="effect1_dropShadow_1_3" result="shape"/>
</filter>
<clipPath id="clip0_1_3">
<rect width="710" height="500" fill="white" transform="translate(4)"/>
</clipPath>
</defs>
</svg>
