<svg width="94" height="481" viewBox="0 0 94 481" fill="none" xmlns="http://www.w3.org/2000/svg">
<path d="M36.76 423.23H-20V479.99H36.76V423.23Z" stroke="white" stroke-width="2" stroke-miterlimit="10"/>
<path d="M65.14 394.85H8.38V451.61H65.14V394.85Z" fill="#C08D16"/>
<path d="M-8.02997 132.57C13.94 137.56 30.33 157.21 30.33 180.68C30.33 206.06 11.17 226.96 -13.47 229.71" stroke="white" stroke-width="3" stroke-miterlimit="10" stroke-linecap="round"/>
<path d="M-5.69995 118.06C23.2701 124.19 45.0001 149.9 45.0001 180.69C45.0001 213.78 19.8901 241.01 -12.3199 244.36" stroke="white" stroke-width="3" stroke-miterlimit="10" stroke-linecap="round"/>
<path d="M-9.97995 146.98C4.91005 150.96 15.8801 164.54 15.8801 180.69C15.8801 198.41 2.67005 213.05 -14.45 215.28" stroke="white" stroke-width="3" stroke-miterlimit="10" stroke-linecap="round"/>
<path d="M-11.9899 161.41C-4.11994 164.28 1.50006 171.82 1.50006 180.69C1.50006 190.8 -5.81994 199.2 -15.4399 200.89" stroke="white" stroke-width="3" stroke-miterlimit="10" stroke-linecap="round"/>
</svg>
