<svg width="135" height="269" viewBox="0 0 135 269" fill="none" xmlns="http://www.w3.org/2000/svg">
<path d="M135 226.67C83.8201 226.67 42.3301 185.18 42.3301 134C42.3301 82.82 83.8201 41.33 135 41.33" fill="#C08D16"/>
<path d="M31.6802 134C31.6802 76.94 77.9402 30.68 135 30.68" stroke="white" stroke-miterlimit="10"/>
<path d="M135 237.32C77.9402 237.32 31.6802 191.06 31.6802 134" stroke="white" stroke-width="4" stroke-miterlimit="10"/>
<path d="M31.6802 134C31.6802 76.94 77.9402 30.68 135 30.68" stroke="white" stroke-miterlimit="10"/>
<path d="M135 237.32C77.9402 237.32 31.6802 191.06 31.6802 134" stroke="white" stroke-width="4" stroke-miterlimit="10"/>
<path d="M22.1401 134C22.1401 71.67 72.6701 21.14 135 21.14" stroke="white" stroke-miterlimit="10"/>
<path d="M135 246.86C72.6701 246.86 22.1401 196.33 22.1401 134" stroke="white" stroke-width="4" stroke-miterlimit="10"/>
<path d="M22.1401 134C22.1401 71.67 72.6701 21.14 135 21.14" stroke="white" stroke-miterlimit="10"/>
<path d="M135 246.86C72.6701 246.86 22.1401 196.33 22.1401 134" stroke="white" stroke-width="4" stroke-miterlimit="10"/>
<path d="M12.6401 134C12.6401 66.42 67.4201 11.64 135 11.64" stroke="white" stroke-miterlimit="10"/>
<path d="M135 256.36C67.4201 256.36 12.6401 201.58 12.6401 134" stroke="white" stroke-width="4" stroke-miterlimit="10"/>
<path d="M2.33008 134C2.33008 60.73 61.7301 1.33002 135 1.33002" stroke="white" stroke-miterlimit="10"/>
<path d="M135 266.67C61.7301 266.67 2.33008 207.27 2.33008 134" stroke="white" stroke-width="4" stroke-miterlimit="10"/>
</svg>
