<svg width="921" height="901" viewBox="0 0 921 901" fill="none" xmlns="http://www.w3.org/2000/svg">
<circle cx="460.5" cy="440.5" r="460.5" fill="#A9FFCB"/>
<mask id="mask0_0_652" style="mask-type:alpha" maskUnits="userSpaceOnUse" x="0" y="-20" width="921" height="921">
<circle cx="460.5" cy="440.5" r="460.5" fill="#D2FC9D"/>
</mask>
<g mask="url(#mask0_0_652)">
<path d="M581.984 614.568C580.457 609.015 576.304 603.7 571.021 605.148C569.509 605.562 561.776 607.949 561.983 608.713L569.971 638.675C570.178 639.423 571.18 639.152 571.435 639.089C581.237 636.4 584.276 622.858 581.984 614.568Z" fill="#C08D16"/>
<path d="M678.124 464.821C690.599 448.877 686.048 420.506 682.166 406.344C681.752 404.817 680.638 400.775 680.575 400.536C676.963 387.393 664.138 380.312 654.527 384.863C656.579 394.346 661.926 407.84 664.44 416.942C668.259 430.849 673.064 451.264 678.14 464.821H678.124Z" fill="#C08D16"/>
<path d="M773.978 361.791C773.978 361.791 774.535 363.811 774.662 364.321C776.97 372.658 780.136 380.217 782.109 388.364L782.682 388.475C782.937 388.411 784.019 388.38 784.257 388.316C784.48 388.252 784.703 388.157 784.91 388.077C783.509 378.562 782.093 369.078 780.693 359.563C778.672 360.088 776.635 360.613 774.599 361.075L773.978 361.791Z" fill="#C08D16"/>
<path d="M585.182 683.165C584.928 683.228 584.498 683.626 584.578 683.865L593.186 714.209C593.393 714.973 594.395 714.686 594.905 714.559C612.058 710.088 610.626 696.976 609.225 691.948C607.984 687.429 604.436 676.514 585.182 683.165Z" fill="#C08D16"/>
<path d="M711.19 614.696C710.394 610.861 703.902 582.362 696.057 584.272C695.596 583.572 695.357 583.651 694.848 583.779C689.581 585.227 681.498 589.332 682.691 607.392C682.914 611.115 684.999 621.633 685.062 621.872C685.269 622.62 687.21 629.653 687.895 632.167C688.308 633.679 690.25 640.728 690.727 642.478C697.585 670.324 705.032 680.714 711.349 680.062C711.588 679.982 712.097 679.855 712.351 679.776C714.849 679.091 717.332 673.284 717.475 671.867C719.559 655.892 715.486 630.258 711.333 615.173C711.333 615.173 711.269 614.918 711.206 614.664L711.19 614.696Z" fill="#C08D16"/>
<path d="M855.861 803.555C848.319 803.332 840.761 803.475 833.187 803.459C831.15 764.952 828.031 726.525 824.26 688.145C822.717 689.768 820.934 691.009 818.786 691.598C809.478 694.16 798.769 695.481 789.635 696.642C785.339 696.754 785.498 695.353 782.3 693.524C780.629 692.346 778.115 693.046 777.415 690.548L777.288 690.039C783.128 680.858 799.246 623.447 800.122 617.798L723.203 546.513L722.996 545.749C722.71 544.747 722.583 544.253 723.76 543.649C724.285 543.521 727.292 542.678 728.04 542.471C740.849 538.955 756.92 533.449 768.234 530.346C775.967 529.026 778.274 535.422 783.096 539.225L809.796 562.918C806.423 537.172 802.858 511.443 799.183 485.713L788.601 489.071C786.787 490.375 783.175 491.107 781.664 491.521C780.661 491.807 777.033 492.523 776.285 492.73C775.012 493.08 773.405 492.173 772.578 491.044C764.097 463.198 732.734 373.963 724.11 336.634C723.394 336.013 723.187 335.265 722.98 334.502C721.166 327.93 754.343 317.11 773.612 311.238C771.878 299.272 770.191 287.275 768.489 275.293C766.436 275.866 754.518 279.51 750.444 280.64C747.341 281.483 738.956 283.424 738.606 283.52L737.142 283.567C729.918 253.271 725.797 207.269 695.421 192.599C691.109 190.45 684.903 188.08 680.416 189.305C680.416 189.305 678.156 189.193 678.108 190.323C679.047 193.776 682.818 210.181 683.773 213.618C683.869 213.968 684.521 216.387 684.712 217.071C685.937 221.558 688.213 225.759 689.454 230.246C693.543 245.076 696.153 259.954 700.672 275.039C703.058 291.826 684.266 301.818 670.137 305.701C668.068 306.274 662.547 307.785 661.862 307.976C660.462 308.358 655.466 308.995 654.67 308.836C654.32 308.931 650.485 308.501 649.371 308.438C649.021 308.533 648.48 307.944 648.48 307.944C648.035 307.69 647.414 306.751 647.414 306.751L579.9 74.8022C578.865 70.9992 605.438 61.0861 607.778 60.0836C608.128 59.9881 612.949 58.6674 614.317 58.2856C616.052 57.8241 620.189 56.6784 620.539 56.5671C621.223 56.3761 628.161 55.9624 628.845 55.7715C638.551 54.594 639.172 55.5328 641.797 63.7115C641.972 64.3958 642.163 65.0959 642.354 65.7801L642.45 66.1301C643.023 68.1987 642.816 70.1241 643.388 72.1767C646.046 81.8353 649.928 91.9076 652.92 101.471C654.638 107.692 662.499 136.318 664.217 142.539L666.715 148.904C667.241 149.509 668.195 148.872 668.529 148.777C675.419 146.883 683.232 128.044 684.919 122.013C689.358 104.446 691.109 82.4558 686.16 64.5071C684.457 58.3015 681.275 52.1276 679.556 45.9219C679.461 45.556 678.554 43.5829 679.588 43.2965L737.206 27.4481C738.447 27.0981 739.433 27.3208 740.213 27.8141C739.704 21.1311 739.099 14.4481 738.638 7.76502C741.343 7.23992 744.095 6.81029 746.8 6.25337C753.102 4.9645 751.924 -3.51658 745.639 -3.50067C743.045 -3.50067 740.452 -3.35746 737.858 -3.32563C737.54 -8.27426 737.126 -13.207 736.84 -18.1715C736.712 -20.5424 732.687 -20.6538 732.607 -18.2352C732.448 -13.2388 732.623 -8.21061 732.543 -3.21425C625.44 -1.54349 517.763 15.6255 411.694 29.0871C303.891 42.7714 194.814 59.3357 88.7606 84.047C88.2514 81.2465 87.8377 78.446 87.3285 75.6614C86.7239 72.3995 82.0616 72.9723 82.2367 76.2661C82.3958 79.3212 82.6345 82.3763 82.7936 85.4314C77.113 86.7839 71.3847 88.0409 65.7201 89.4253C63.19 90.0618 62.4899 94.4535 65.6405 94.5012C71.5438 94.6444 77.4313 94.6285 83.3505 94.5489C85.7214 134.408 88.9197 174.252 92.5476 214.064C103.447 211.216 115.875 208.033 130.259 204.421C133.648 204.58 137.292 208.415 138.151 211.518C141.954 225.314 146.521 243.374 148.176 257.392C143.625 266.446 126.106 267.56 116.909 271.936C116.225 272.127 114.681 273.288 114.681 273.288C114.952 274.322 115.222 277.966 115.509 279.001L115.604 279.351C123.958 309.711 146.776 383.24 161.431 423.004C161.892 424.722 161.988 431.756 161.081 433.856C156.148 445.615 144.071 448.941 132.344 452.171C131.309 452.457 130.275 452.728 129.241 453.014C125.358 454.08 121.682 454.923 118.341 455.019C119.232 462.8 120.123 470.565 120.998 478.346C121.412 482.053 121.81 485.793 122.223 489.516C127.045 487.416 132.041 485.649 136.942 484.297C137.213 484.233 140.872 483.772 141.127 483.692L141.382 483.613C181.114 477.853 215.022 534.865 209.326 617.973C208.323 621.235 207.639 624.688 206.382 628.03C198.649 642.382 185.442 651.739 169.021 656.242C159.585 658.835 149.688 659.265 140.57 657.053C142.002 669.56 143.482 682.083 144.994 694.59C157.532 689.959 176.961 684.374 221.498 673.156C223.981 673.299 226.638 676.084 227.258 678.344C230.011 688.4 233.353 701.527 234.546 711.743C231.221 718.314 218.459 719.126 211.776 722.324C211.267 722.451 210.153 723.311 210.153 723.311C210.36 724.059 210.567 726.7 210.758 727.464L210.821 727.718C216.916 749.836 233.528 803.38 244.205 832.324C244.555 833.581 244.603 838.72 243.95 840.248C240.37 848.809 231.571 851.227 223.01 853.582C222.262 853.789 221.498 853.996 220.75 854.203C212.715 856.414 205.714 857.528 202.945 847.472L198.251 830.383L180.907 772.176C178.6 767.673 168.177 733.781 165.138 733.526C164.82 733.351 162.735 733.638 161.988 733.845C160.715 734.051 155.114 735.818 150.372 737.329C156.721 785.527 163.977 833.581 173.062 881.285C166.554 881.842 160.11 882.255 153.777 882.367C150.467 882.415 151.12 887.522 154.382 887.459C160.953 887.347 167.509 887.061 174.081 886.854C174.526 889.177 174.908 891.532 175.354 893.855C175.99 897.07 180.764 896.56 180.445 893.251C180.239 891.055 180.048 888.875 179.873 886.695C396.88 879.535 610.244 828.95 826.504 812.068C827.156 817.096 827.84 822.108 828.461 827.136C828.954 831.003 834.571 830.239 834.412 826.42C834.189 821.456 833.839 816.507 833.6 811.527C840.968 810.97 848.351 810.349 855.718 809.872C859.298 809.649 859.441 803.634 855.813 803.523L855.861 803.555ZM406.03 129.317C406.364 129.221 408.798 128.553 409.132 128.457C409.817 128.266 411.885 127.71 411.885 127.71C417.948 126.787 444.298 121.392 450.01 120.565C459.462 119.817 463.551 132.038 470.362 136.493L502.552 176.623C505.288 178.485 505.129 179.264 507.262 181.651C508.885 183.433 520.771 198.327 522.633 199.679C528.265 206.681 533.039 214.621 539.69 219.872C539.404 218.837 537.892 213.3 537.494 211.932C533.325 196.752 527.167 182.479 522.999 167.314C522.712 166.264 521.853 163.161 521.757 162.827C517.954 144.942 512.672 127.089 508.519 109.315C508.535 106.706 510.826 104.223 513.149 103.205C515.472 102.203 524.065 98.3519 525.449 97.9859C525.799 97.8905 535.792 95.1377 539.245 94.183C542.698 93.2282 559.341 89.0275 559.278 92.7668C561.267 100.007 562.476 107.103 564.37 113.993C565.229 117.112 566.215 122.029 568.109 124.845L576.176 154.171C576.701 154.776 577.911 157.783 578.102 158.483C578.181 158.817 578.261 161.761 578.356 162.111C578.452 162.445 579.804 164.689 579.9 165.023L579.995 165.373L580.091 165.723C580.282 166.423 580.25 169.017 580.457 169.717L585.755 189.034C585.628 191.294 586.105 193.028 586.678 195.097C594.746 224.423 606.521 252.364 614.381 280.99C615.049 283.392 618.12 295.915 618.789 298.334C620.539 306.019 616.131 314.293 609.082 316.967C608.048 317.253 607.793 317.699 606.759 317.985C594.905 323.475 581.682 329.346 568.905 332.863C565.133 333.897 562.19 331.367 560.217 328.2C558.705 326.768 553.12 318.653 551.529 316.871C545.8 309.536 516.554 276.009 510.46 268.785C509.823 267.846 503.029 259.318 502.313 258.045C501.326 257.201 499.083 254.464 498.749 254.56L498.064 254.751L508.121 291.332C510.205 294.849 510.539 297.331 511.478 300.784C513.388 307.69 514.581 314.787 516.475 321.677C517.127 324.079 518.495 326.323 519.259 329.076C522.394 340.453 512.624 346.849 503.665 349.316L474.69 357.288C472.271 357.94 467.307 357.463 466.368 354.01L405.409 135.093C405.027 133.708 404.613 130.86 406.061 129.348L406.03 129.317ZM582.812 525.302C582.175 523.027 578.054 510.027 577.974 509.788C577.704 508.77 575.428 501.514 575.158 500.495C575.015 499.986 573.949 495.117 573.742 494.369C573.678 494.115 573.599 493.86 573.599 493.86C573.392 493.112 571.753 488.116 571.546 487.352C570.639 484.074 566.725 468.846 565.738 465.298L542.888 380.233C542.761 379.723 541.695 377.846 541.536 377.337C541.536 377.337 541.472 377.098 541.409 376.827C540.152 372.293 548.808 370.176 551.688 367.758L567.361 363.43C567.6 363.366 573.01 363.255 575.094 362.936C576.749 363.032 578.118 364.002 579.757 364.098C583.448 363.636 583.575 364.146 584.482 367.423C584.546 367.678 584.61 367.949 584.673 368.171C588.078 380.567 590.927 392.835 593.17 404.992C603.577 441.812 616.434 485.586 624.421 522.533C622.512 527.403 614.89 533.322 610.228 535.136C602.893 537.157 599.058 539.034 592.741 540.769C589.702 541.612 586.217 539.83 585.469 537.061C585.182 536.043 585.31 535.47 585.151 533.879C584.801 532.622 583.194 526.798 582.796 525.286L582.812 525.302ZM340.504 143.255L361.906 137.368C362.256 137.273 369.623 137.098 372.471 136.684C374.731 136.811 376.592 138.148 378.852 138.259C383.864 137.623 384.055 138.323 385.28 142.81C385.376 143.16 385.471 143.51 385.567 143.844C390.213 160.743 394.096 177.498 397.182 194.11C411.376 244.376 428.927 304.142 439.842 354.582C437.233 361.25 426.811 369.301 420.462 371.783C410.453 374.536 405.202 377.098 396.594 379.469C392.441 380.615 387.699 378.196 386.665 374.393C386.283 373.009 386.442 372.245 386.203 370.065C385.726 368.33 383.562 360.406 382.973 358.338C382.13 355.235 376.497 337.493 376.401 337.127C376.02 335.743 372.917 325.845 372.551 324.461C372.36 323.777 370.896 317.126 370.609 316.091C370.53 315.741 370.419 315.391 370.419 315.391C370.132 314.357 367.904 307.531 367.618 306.512C366.377 302.025 361.03 281.228 359.71 276.407L328.506 160.281C328.315 159.597 326.867 157.035 326.677 156.335C326.677 156.335 326.581 155.985 326.486 155.635C324.767 149.429 336.606 146.549 340.52 143.24L340.504 143.255ZM403.865 462.529L403.929 462.784C410.039 485.013 426.747 538.859 437.487 567.994C437.838 569.267 437.901 574.406 437.233 575.95C433.621 584.574 424.774 587.009 416.197 589.364C415.434 589.555 414.67 589.777 413.922 589.984C405.839 592.212 398.79 593.326 396.021 583.222L391.295 566.021L373.84 507.497C371.516 502.978 361.03 468.878 357.975 468.624C357.657 468.449 355.573 468.751 354.809 468.958C352.708 469.26 339.008 473.843 336.494 474.543C334.839 474.463 332.612 474.241 331.991 471.981C331.02 463.548 325.276 451.534 322.953 442.114C322.81 441.605 322.746 441.35 322.603 440.857C321.807 439.982 321.664 439.473 321.457 438.725C320.9 436.704 325.929 434.238 327.886 433.426C340.981 427.65 356.686 422.495 414.67 407.919C417.152 408.063 419.825 410.863 420.446 413.139C423.23 423.243 426.588 436.466 427.797 446.729C424.456 453.348 411.631 454.16 404.9 457.374C404.391 457.517 403.277 458.36 403.277 458.36C403.484 459.124 403.675 461.781 403.881 462.545L403.865 462.529ZM153.475 213.268C153.475 213.268 153.013 211.55 152.806 210.85C151.772 207.047 151.533 204.899 150.563 199.95C152.361 195.749 159.68 192.63 164.167 191.389C164.518 191.294 166.236 190.832 166.57 190.737C168.305 190.26 181.161 187.093 182.88 186.616C183.23 186.52 186.253 185.327 186.922 185.136C186.922 185.136 189.579 184.038 190.629 183.752C196.835 182.033 203.836 180.49 209.994 179.901C211.665 180.569 213.272 182.351 214.322 183.545C214.513 184.229 215.929 189.4 216.12 190.1L243.552 289.821C243.648 290.155 244.109 290.409 244.109 290.409L274.119 282.151L274.613 281.26L253.975 192.678C253.497 190.944 252.431 189.766 251.954 188.032C250.442 182.526 253.243 183.226 254.786 179.471C256.139 177.609 257.969 170.799 260.976 169.59C262.01 169.319 266.147 168.174 266.847 167.983C268.566 167.505 272.703 166.376 273.053 166.28C282.218 164.498 291.686 161.156 301.854 161.698C305.545 162.923 307.121 167.298 308.075 170.751C308.744 173.17 309.11 174.554 308.648 176.909C309.794 181.046 354.491 343.556 353.106 339.848C354.634 345.369 361.078 368.84 362.494 374.011C362.908 376.859 360.171 379.103 358.485 381.044C356.941 382.206 352.199 386.486 351.006 387.552C348.078 389.096 333.55 395.683 330.543 396.892C330.209 396.988 325.722 398.213 324.337 398.595C321.219 399.438 308.123 403.05 306.309 396.511L289.792 336.475C289.617 335.775 287.262 335.329 287.262 335.329C283.364 336.013 265.925 340.071 261.692 340.866L260.308 341.248C256.171 342.394 259.21 349.347 259.512 351.862C260.658 355.999 265.686 378.355 267.309 384.227C267.627 386.725 269.966 393.885 269.696 396.924C268.248 413.282 251.699 417.833 237.888 421.636C231.332 423.434 225.301 425.836 219.653 421.445C213.813 401.523 181.655 300.88 153.459 213.252L153.475 213.268ZM209.31 508.165C206.255 497.042 203.056 485.427 201.513 473.891C200.956 468.878 210.137 467.701 213.176 466.889C213.876 466.428 219.048 464.455 220.034 464.184C220.305 464.105 224.856 462.863 226.622 462.386C231.666 461.002 240.418 457.215 244.682 462.848C244.762 463.102 245.875 467.144 246.146 468.146C248.517 476.755 250.044 485.284 252.415 493.892C256.171 507.528 260.865 520.656 264.302 534.117C264.683 534.547 265.67 536.17 265.75 536.425C266.195 537.125 268.264 543.617 268.725 544.317C270.698 549.472 275.472 554.962 276.236 560.738C277.238 562.361 281.916 569.506 282.903 571.145C284.923 573.579 287.438 574.788 290.27 576.189C292.179 576.205 293.834 576.3 295.362 575.87C298.385 575.027 298.385 572.036 298.178 569.378C298.417 568.233 297.955 562.648 297.876 561.295C297.526 560.038 295.298 551.955 294.964 550.698C294.136 547.674 292.036 540.084 291.909 539.591C291.161 537.873 283.666 519.542 270.762 473.62C269.171 467.812 267.42 461.479 266.832 455.401C267.198 454.748 267.834 454.048 268.264 453.65C269.266 453.38 273.817 452.123 274.835 451.852C276.601 451.359 281.407 450.054 281.916 449.895C285.449 448.925 303.54 444.485 307.391 443.69C308.616 444.167 309.539 445.551 309.889 446.824C313.995 456.833 317.416 467.319 320.407 478.171C318.736 472.124 348.826 558.717 335.667 588.982C335.476 589.284 335.285 591.528 335.094 591.846C335.221 592.355 334.792 592.737 334.792 592.737L327.472 605.626C327.281 605.944 326.231 607.058 325.738 607.201C318.402 612.213 311.099 615.316 303.015 617.528C280.277 623.781 266.434 621.888 250.044 605.737C247.737 603.366 247.323 600.773 245.462 598.02C245.398 597.765 244.141 596.206 244.141 596.206C241.261 592.642 239.813 588.409 238.285 584.765C235.23 576.634 231.173 568.774 228.372 560.579C224.744 549.345 220.607 538.239 216.454 527.148C213.892 520.783 211.14 514.753 209.326 508.165H209.31ZM387.747 801.82C386.633 802.664 383.164 805.783 382.289 806.562C380.157 807.692 369.607 812.482 367.411 813.357C367.141 813.436 363.879 814.327 362.892 814.598C360.617 815.218 351.07 817.844 349.765 813.086L337.735 769.36C337.592 768.851 335.874 768.501 335.874 768.501C333.057 769.01 320.328 771.97 317.257 772.542L316.254 772.813C313.231 773.64 315.443 778.716 315.665 780.546C316.493 783.569 320.168 799.847 321.346 804.128C321.569 805.942 323.271 811.145 323.08 813.373C322.03 825.291 309.953 828.632 299.913 831.369C295.139 832.69 290.763 834.424 286.642 831.226C282.378 816.73 258.971 743.424 238.445 679.601C238.445 679.601 238.094 678.344 237.967 677.834C237.203 675.066 237.044 673.49 236.328 669.894C237.649 666.823 242.979 664.564 246.241 663.657C246.496 663.593 247.753 663.243 247.992 663.163C249.249 662.813 258.621 660.522 259.878 660.172C260.133 660.092 262.328 659.233 262.806 659.09C262.806 659.09 264.763 658.279 265.511 658.072C270.046 656.831 275.138 655.701 279.609 655.287C280.818 655.749 281.996 657.069 282.775 657.928C282.919 658.438 283.953 662.209 284.096 662.702L304.066 735.324C304.145 735.563 304.463 735.738 304.463 735.738L326.326 729.723L326.692 729.087L311.64 664.564C311.306 663.307 310.51 662.432 310.16 661.174C309.046 657.149 311.099 657.674 312.244 654.937C313.215 653.584 314.552 648.62 316.732 647.729C317.479 647.522 320.503 646.695 321.012 646.551C322.269 646.201 325.292 645.39 325.531 645.31C332.198 644.021 339.104 641.587 346.503 641.985C349.176 642.876 350.338 646.074 351.022 648.588C351.499 650.338 351.786 651.341 351.436 653.059C352.263 656.083 384.835 774.436 383.801 771.747C384.914 775.757 389.608 792.846 390.659 796.617C390.977 798.702 388.972 800.325 387.747 801.741V801.82ZM502.249 775.995L431.377 798.463C429.579 799.768 425.999 800.484 424.487 800.913C423.485 801.184 419.905 801.9 419.141 802.107C417.884 802.457 416.277 801.534 415.434 800.42C407 772.733 375.829 683.992 367.252 646.886C366.536 646.281 366.329 645.517 366.122 644.769C363.56 635.477 431.377 617.639 429.722 617.544C436.246 615.746 450.09 611.943 452.715 621.49C453.209 623.24 453.097 624.895 453.527 626.407C454.768 630.926 457.855 635.206 459.16 639.98C460.687 645.517 459.223 649.957 457.298 654.826C456.423 657.515 453.972 658.438 452.031 659.249L451.776 659.313C440.909 665.009 429.166 668.51 417.47 671.183L416.834 671.899C416.834 671.899 417.391 673.904 417.534 674.413C419.809 682.703 422.96 690.198 424.933 698.329L425.506 698.44C425.744 698.377 426.826 698.345 427.097 698.281C431.616 697.04 435.912 693.969 440.415 692.712C445.428 691.328 449.756 692.298 452.333 696.738C453.145 698.679 456.248 707.017 456.725 708.767C456.789 709.006 458.141 712.968 458.555 714.48C458.826 715.482 459.685 719.556 459.892 720.319C460.401 726.127 459.478 729.612 453.829 731.712C451.57 732.333 440.399 735.961 438.395 736.502L437.678 737.791C438.092 739.286 441.195 750.584 441.609 752.111L489.011 737.727C490.268 737.377 491.891 739.366 492.432 740.305C495.853 748.834 504.334 767.864 502.249 775.995ZM460.671 515.962C460.671 515.962 460.321 514.689 460.178 514.196C460.114 513.941 459.764 512.684 459.764 512.684L460.13 512.032L496.107 503.503C496.616 503.359 497.555 502.834 497.698 503.344C497.826 503.837 498.049 504.601 498.255 505.364C500.531 512.62 500.579 530.553 517.573 523.154C522.235 521.34 522.235 513.448 521.2 509.661C517.923 497.79 502.154 494.767 491.636 491.139C490.984 490.773 490.665 490.598 490.013 490.232C469.566 483.088 449.612 475.8 443.566 453.81C443.502 453.571 443.55 452.728 443.55 452.728C444.457 451.12 444.139 450.945 442.786 449.943C442.388 449.513 440.765 445.599 440.638 445.09C440.559 444.835 439.779 443.976 439.779 443.976C439.779 443.976 439.572 443.212 439.508 442.958C431.521 413.886 457.664 393.376 485.16 385.547C533.866 371.863 544.368 417.912 547.423 442.91C547.551 443.419 544.13 443.801 543.366 444.008C542.347 444.294 539.579 445.058 539.579 445.058C534.439 446.204 518.336 450.898 513.149 451.789C510.889 452.425 510.396 450.643 509.776 449.45C509.733 449.28 509.691 449.11 509.648 448.941C509.091 446.92 506.593 437.818 505.973 435.543C504.191 430.053 498.621 422.622 490.777 424.77C471.826 429.989 494.246 453.173 506.227 457.231C508.598 457.931 510.969 458.647 513.085 459.411C541.075 468.305 571.514 478.139 560.169 522.868C558.594 529.01 557.321 534.245 553.454 539.941C546.246 550.332 535.267 555.821 522.617 559.29C490.013 568.249 474.897 557.731 460.687 515.978L460.671 515.962ZM644.136 710.74C643.898 711.886 641.368 719.349 640.827 720.303C640.715 720.876 640.238 725.061 640.063 725.379C639.872 725.698 637.803 728.975 637.692 729.548C637.517 729.867 637.247 731.84 637.247 731.84C636.992 731.903 635.767 733.335 635.321 733.717C632.982 735.993 630.086 739.223 627.349 741.053C619.202 746.813 613.267 749.804 603.959 752.366C594.157 755.055 584.005 756.487 574.187 758.11C569.111 759.24 563.144 759.272 561.553 753.48C561.139 751.984 561.553 750.504 561.203 749.247C561.139 748.993 561.06 748.754 561.06 748.754C558.53 743.487 556.971 738.793 555.379 733.001C551.926 720.447 548.903 707.494 545.45 694.924C545.243 694.176 544.893 692.919 544.893 692.919C544.75 692.41 542.156 686.92 541.95 686.156C540.995 683.722 537.638 672.488 536.937 669.958C536.874 669.703 535.808 667.842 535.68 667.348L535.601 667.094C535.537 666.839 535.394 666.346 535.394 666.346C535.314 666.091 535.283 663.943 535.139 663.45L535.076 663.195C532.848 655.16 529.379 641.507 525.401 633.949C525.051 632.708 523.317 626.407 522.919 624.895C522.362 622.906 520.564 616.366 520.421 615.857C519.673 613.089 516.968 600.311 516.506 597.733C515.09 593.517 521.264 587.502 525.035 586.468L569.764 574.152C570.273 574.009 573.424 573.69 574.251 573.738C587.251 572.847 599.758 572.115 609.687 580.739C615.049 585.465 618.327 590.509 620.205 597.304C620.412 598.052 620.953 600.073 620.953 600.073C620.778 600.391 620.809 604.448 620.889 604.687C621.653 610.431 622.942 614.123 620.921 619.533C620.666 619.612 619.393 621.856 619.202 622.19C619.346 622.699 620.491 625.898 620.38 626.455C620.443 626.709 620.332 627.282 620.237 627.855C617.675 637.211 612.424 642.717 606.902 650.179C606.727 650.498 606.17 651.468 606.17 651.468C606.234 653.616 618.009 655.223 621.159 656.815C630.563 661.509 640.238 669.131 643.198 679.935C645.346 687.732 646.396 703.389 644.105 710.772L644.136 710.74ZM609.146 393.821C606.6 385.547 603.481 377.162 601.11 368.569C600.967 368.076 599.933 364.289 599.726 363.525C598.755 359.993 606.361 358.974 607.809 358.306C608.319 358.163 612.519 355.665 614.413 354.598C614.667 354.519 615.606 353.994 615.845 353.93C621.525 351.83 624.994 350.605 629.8 349.284C654.813 342.394 685.619 340.723 704.57 360.247C714.165 370.399 720.816 385.674 724.365 398.563C724.778 400.091 725.892 404.132 725.892 404.132C726.37 407.808 728.39 424.102 728.534 427.587C728.534 432.488 728.502 439.298 728.995 444.056C729.059 444.31 729.409 447.477 729.281 448.065C729.17 448.638 726.64 452.33 726.529 452.887C724.651 456.944 726.21 458.679 725.59 462.37C725.415 462.704 723.871 465.028 723.76 465.6C723.84 465.855 724.778 468.305 724.603 468.624C724.731 469.133 722.964 471.52 722.853 472.108C721.341 478.505 717.968 484.026 714.213 489.166C703.902 505.046 681.132 516.2 662.944 521.213C659.667 522.12 647.876 523.711 646.332 518.158C646.269 517.919 646.062 517.155 646.062 517.155C645.855 516.391 644.343 508.929 644.136 508.165C644.136 508.165 644.073 507.91 644.009 507.656C640.254 494.003 636.849 484.599 633.348 470.899C632.171 469.594 631.757 468.083 631.264 466.301C630.15 462.259 629.879 458.265 628.75 454.223C627.365 449.163 625.026 444.644 623.578 439.346C622.56 436.625 622.098 432.949 620.316 430.435C619.234 427.475 615.002 415.048 614.158 412.025C613.601 410.004 609.703 395.842 609.146 393.821ZM758.162 678.28C757.159 681.526 756.491 684.963 755.218 688.257C747.516 702.546 734.389 711.822 718.079 716.325C702.502 720.622 685.571 719.062 673.144 709.229C671.839 707.431 666.302 701.114 665.077 699.57C659.269 692.235 657.168 683.626 653.827 675.352L643.102 636.4C640.827 628.109 639.172 614.234 639.156 605.323C639.204 604.496 639.379 593.358 639.538 588.998C640.365 564.446 664.313 551.366 686.192 545.351C686.43 545.288 690.106 544.826 690.345 544.762L690.599 544.683C730.109 538.955 763.81 595.633 758.162 678.28Z" fill="#C08D16"/>
<path d="M141.588 581.965C148.478 609.986 155.973 620.44 162.322 619.772C162.56 619.692 163.07 619.565 163.324 619.485C165.87 618.785 168.336 612.945 168.496 611.545C170.596 595.474 166.491 569.681 162.322 554.532C162.322 554.532 162.258 554.262 162.178 554.023C161.399 550.157 154.859 521.499 146.951 523.409C146.489 522.724 146.235 522.788 145.725 522.931C140.427 524.379 132.312 528.532 133.521 546.672C133.728 550.411 135.828 560.993 135.876 561.247C136.099 562.011 138.04 569.076 138.724 571.606C139.154 573.134 141.095 580.214 141.588 581.965Z" fill="#C08D16"/>
<path d="M743.968 100.564C741.725 108.583 740.356 117.128 737.874 125.609L737.619 126.055C734.182 131.083 733.403 135.013 729.966 140.041C725.717 147.504 720.45 152.675 715.915 159.104L716.011 159.454L716.106 159.804C716.202 160.138 716.647 160.393 716.982 160.297C731.493 160.075 744.271 166.344 755.313 176.082C751.654 146.422 748.328 116.714 745.416 86.9908C744.732 91.3188 745.321 95.9333 743.984 100.548L743.968 100.564Z" fill="#C08D16"/>
<path d="M768.489 275.293C768.489 275.293 768.616 275.261 768.632 275.245C773.119 274.004 794.425 267.799 798.896 266.573C799.066 266.266 799.236 265.969 799.405 265.682C801.856 262.42 801.283 260.336 800.137 256.199C793.248 231.121 778.02 196.131 755.297 176.082C759.387 209.179 763.81 242.244 768.489 275.293Z" fill="#C08D16"/>
<path d="M786.946 307.117C787.424 307.149 781.727 308.756 773.612 311.238C775.951 327.341 778.306 343.46 780.693 359.563C790.415 357.065 800.058 353.866 809.096 349.141L809.35 349.061C811.308 348.265 813.758 347.311 814.665 344.622C816.59 339.753 818.07 335.249 816.543 329.696C815.222 324.891 812.135 320.579 810.878 316.044C810.464 314.516 810.544 312.861 810.067 311.095C807.441 301.5 793.534 305.319 786.962 307.133L786.946 307.117Z" fill="#C08D16"/>
<path d="M794.918 428.064L795.65 426.775C797.671 426.218 808.921 422.59 811.18 421.97C816.877 419.853 817.784 416.353 817.259 410.497C817.068 409.749 816.209 405.628 815.922 404.626C815.509 403.114 814.14 399.12 814.061 398.881C813.567 397.099 810.464 388.73 809.653 386.772C807.075 382.317 802.731 381.346 797.655 382.731C793.327 383.924 789.206 386.725 784.894 388.077C789.715 420.617 794.521 453.157 799.151 485.729L859.839 466.475C861.94 458.297 853.411 439.155 849.958 430.578C849.433 429.639 847.794 427.65 846.521 428L798.865 442.464C798.451 440.937 795.316 429.576 794.887 428.048L794.918 428.064Z" fill="#C08D16"/>
<path d="M745.687 85.2245C745.496 84.5244 746.45 81.2942 746.8 81.2147C747.198 75.916 745.034 72.0494 745.177 67.1962C745.75 54.4189 745.496 46.7016 741.804 34.7199C741.581 32.5558 742.616 32.2694 742.154 30.535C741.836 29.3894 741.184 28.3869 740.229 27.7982C741.74 47.5449 743.459 67.2758 745.416 86.9907C745.512 86.402 745.543 85.7973 745.703 85.2245H745.687Z" fill="#C08D16"/>
<path d="M891.568 631.849C878.329 620.074 863.547 609.556 851.597 596.62C851.533 596.365 851.263 595.363 851.183 595.124C850.626 593.119 850.881 593.039 851.692 590.112C852.329 584.542 874.303 519.017 872.664 505.158C872.521 504.648 872.569 503.821 871.805 504.028C869.307 504.728 857.246 508.038 854.731 508.722C846.935 510.87 836.067 513.575 827.983 516.614L815.667 568.137L809.812 562.934C815.27 604.607 820.187 646.344 824.276 688.145C833.664 678.343 833.505 652.964 837.61 651.834L837.865 651.771C838.199 651.946 839.535 652.932 839.854 653.107L862.305 671.804C863.69 673.856 865.806 675.702 868.32 675.018L902.754 665.534C909.278 663.736 913.94 658.135 911.887 650.593C910.567 645.819 896.469 634.824 891.584 631.849H891.568Z" fill="#C08D16"/>
<path d="M143.816 739.43C144.787 739.159 147.428 738.316 150.404 737.361C148.542 723.12 146.76 708.863 145.041 694.59C141.35 695.942 138.215 697.231 135.255 698.536C133.314 699.331 128.318 701.798 128.875 703.803C129.082 704.551 129.225 705.06 130.004 705.919C130.132 706.412 130.211 706.667 130.339 707.176C132.646 716.548 138.358 728.498 139.313 736.884C139.918 739.143 142.145 739.334 143.8 739.43H143.816Z" fill="#C08D16"/>
<path d="M98.3875 420.299L104.848 443.769C107.314 452.712 112.247 455.178 118.389 455.003C109.255 374.838 99.9469 294.515 92.5955 214.064C43.523 226.889 26.4495 232.776 11.8264 239.221C9.16905 240.334 2.29508 243.692 3.05886 246.461C3.34527 247.495 3.53621 248.179 4.60231 249.372C4.79325 250.057 4.88873 250.407 5.07967 251.091C8.24616 263.948 16.0908 280.353 17.3955 291.857C18.2548 294.96 21.294 295.247 23.5694 295.358C27.0064 294.403 45.703 288.15 48.5671 287.752C49.6173 287.466 52.4655 287.052 52.8952 287.291C57.08 287.625 71.3531 334.183 74.5514 340.357L98.3875 420.267V420.299Z" fill="#C08D16"/>
<path d="M140.618 657.053C134.237 601.186 128.493 545.24 122.287 489.484C105.437 496.82 90.7181 508.992 90.0975 528.182C89.9384 532.558 89.7634 543.76 89.7156 544.587C89.7474 553.546 91.4023 567.501 93.6936 575.839L104.466 615.014C107.839 623.336 109.956 631.992 115.779 639.359C117.021 640.918 122.59 647.283 123.895 649.081C128.875 653.028 134.587 655.589 140.618 657.037V657.053Z" fill="#C08D16"/>
<path d="M133.617 57.2513C188.402 53.2415 243.68 37.3773 297.972 28.7371C368.732 17.4873 440.145 10.661 510.81 -1.03426C511.701 -1.17746 511.494 -2.64137 510.587 -2.60955C441.211 -0.015898 371.899 10.6133 303.398 21.4812C247.801 30.3123 186.572 37.2977 133.505 56.6467C133.203 56.758 133.219 57.2832 133.585 57.2513H133.617Z" fill="#C08D16"/>
<path d="M520.166 -0.954743C524.415 0.795575 530.477 0.111365 534.026 -2.86418C534.63 -3.37336 534.073 -4.16896 533.453 -4.23261C529.475 -4.64632 523.874 -4.18487 520.166 -2.64141C519.339 -2.29135 519.323 -1.28889 520.166 -0.954743Z" fill="#C08D16"/>
<path d="M525.306 871.929C565.611 871.006 606.537 863.989 646.507 858.897C690.806 853.264 735.376 848.061 778.561 836.445C779.691 836.143 779.5 834.233 778.274 834.345C736.569 838.084 695.325 845.483 653.843 851.179C611.231 857.035 566.836 859.963 525.147 870.735C524.478 870.91 524.622 871.945 525.306 871.929Z" fill="#C08D16"/>
<path d="M79.3407 580.819C77.9405 609.524 96.9076 648.333 121.778 663.148C122.462 663.561 123.449 662.702 122.924 662.002C114.013 650.004 104.513 638.691 97.1303 625.611C89.1425 611.465 85.3395 595.935 80.1681 580.724C80.009 580.262 79.3726 580.358 79.3407 580.835V580.819Z" fill="#C08D16"/>
<path d="M777.877 178.087C791.354 193.378 801.092 205.599 808.03 225.266C813.981 242.148 817.179 260.129 821.508 277.489C821.746 278.428 823.146 278.205 823.162 277.266C823.687 247.749 812.851 186.616 778.402 177.196C777.861 177.053 777.543 177.705 777.877 178.087Z" fill="#C08D16"/>
</g>
</svg>
